<?xml version="1.0" standalone="no"?>
<!DOCTYPE svg PUBLIC "-//W3C//DTD SVG 1.1//EN" "http://www.w3.org/Graphics/SVG/1.1/DTD/svg11.dtd" >
<svg>
<metadata>
Created by FontForge 20090622 at Mon Mar  6 11:44:44 2017
 By deploy user
Converted by ALLTYPE
</metadata>
<defs>
<font id="GillSans-Italic" horiz-adv-x="278" >
  <font-face 
    font-family="GillSans-Italic"
    font-weight="5"
    font-style="italic"
    font-stretch="normal"
    units-per-em="1000"
    panose-1="0 0 0 0 0 0 0 0 0 0"
    ascent="800"
    descent="-200"
    x-height="449"
    cap-height="682"
    bbox="-201 -230 1009 909"
    underline-thickness="50"
    underline-position="-55"
    unicode-range="U+0020-U+F002"
  />
<missing-glyph 
 />
    <glyph glyph-name=".notdef" 
 />
    <glyph glyph-name="glyph1" horiz-adv-x="0" 
 />
    <glyph glyph-name="glyph2" 
 />
    <glyph glyph-name="space" unicode=" " 
 />
    <glyph glyph-name="space" unicode="&#xa0;" 
 />
    <glyph glyph-name="exclam" unicode="!" horiz-adv-x="250" 
d="M100 102q24 -1 41 -18t17 -41t-17 -40.5t-41 -16.5t-41 16.5t-17 40.5t17 41t41 17v1zM94 166q11 111 15.5 195.5l7.5 144.5q5 101 16.5 142.5t54.5 41.5q20 0 30 -15.5t10 -43.5q0 -35 -26.5 -148.5l-58.5 -259.5l-6 -28.5l-6 -29.5l-37 1v0z" />
    <glyph glyph-name="quotedbl" unicode="&#x22;" horiz-adv-x="354" 
d="M86 716h96v-117l-23 -137h-50l-23 137v117v0zM248 716h96v-117l-23 -137h-50l-23 137v117v0z" />
    <glyph glyph-name="numbersign" unicode="#" horiz-adv-x="584" 
d="M195 617h72l-41 -195h194l41 195h72l-41 -195h91v-69h-105l-36 -170h141v-69h-155l-41 -195h-72l41 195h-194l-41 -195h-72l41 195h-90v69h104l36 170h-140v69h154l41 195v0zM212 353l-36 -170h194l36 170h-194v0z" />
    <glyph glyph-name="dollar" unicode="$" horiz-adv-x="500" 
d="M483 604l-13 -90q-30 19 -62.5 32t-67.5 20l-30 -213q67 -37 109.5 -79.5t42.5 -107.5q0 -67 -54.5 -118.5t-148.5 -56.5l-14 -101h-74l14 101q-43 6 -79.5 19t-65.5 34l14 99q8 -6 15.5 -10.5t14.5 -9.5q15 -8 31 -15.5t36 -14.5q10 -4 22 -7.5l25 -7.5l29 215
q-12 6 -22.5 12.5l-20.5 12.5q-53 35 -80 72.5t-27 86.5q0 71 57 120t144 53l5 41h74l-5 -40q28 -5 50 -11t43 -16l18.5 -10t19.5 -11v1zM296 254l-26 -181q44 3 73.5 27.5t29.5 57.5q0 26 -19.5 50.5t-57.5 44.5v1zM242 395l24 175q-45 -8 -72 -29.5t-27 -52.5
q0 -16 4.5 -28.5t16.5 -24.5q8 -10 21.5 -20t32.5 -21v1z" />
    <glyph glyph-name="percent" unicode="%" horiz-adv-x="708" 
d="M631 691l-448 -700h-76l449 700h75v0zM680 144q0 -62 -45 -107t-107 -45q-64 0 -108 45t-44 106q0 65 44 108.5t108 43.5q62 0 107 -43.5t45 -108.5v1zM607 144q0 33 -23.5 55.5t-55.5 22.5q-33 0 -56 -22t-23 -57q0 -31 24 -55t55 -24q34 0 56.5 24t22.5 55v1zM362 539
q0 -62 -45 -107.5t-107 -45.5q-64 0 -108 45.5t-44 106.5q0 65 44 108.5t108 43.5q62 0 107 -43.5t45 -108.5v1zM289 539q0 33 -23.5 55.5t-55.5 22.5q-33 0 -56 -22t-23 -57q0 -31 24 -55t55 -24q34 0 56.5 24t22.5 55v1z" />
    <glyph glyph-name="ampersand" unicode="&#x26;" horiz-adv-x="688" 
d="M565 343h88q-8 -22 -23.5 -54.5t-36.5 -67.5q-17 -28 -37 -55t-42 -48q44 -42 78.5 -49t44.5 -7q5 0 10.5 0.5t11.5 2.5l-33 -70q-4 -2 -10.5 -3t-13.5 -1q-14 0 -30 4t-32 10q-24 10 -46 26t-38 34q-48 -35 -98.5 -54.5t-112.5 -19.5q-98 0 -146 57t-48 133
q0 60 43.5 115.5t115.5 86.5q-16 31 -27 67.5t-11 76.5q0 69 46 116t113 47q56 0 94.5 -40t38.5 -99q0 -55 -35 -104.5t-110 -91.5q10 -18 30 -47t44 -59q4 -7 9 -13t10 -13l23 -27l21 -25q20 20 36.5 42t30.5 44q13 21 23.5 43t18.5 42v1zM143 181q0 -52 34.5 -84.5
t88.5 -32.5q29 0 62.5 13.5t69.5 39.5q-14 15 -31 36l-35 44l-8.5 11l-8.5 11l-37.5 50.5t-28.5 43.5q-52 -29 -79 -63t-27 -70v1zM377 547q0 29 -16.5 48t-42.5 19q-27 0 -46 -26t-19 -64q0 -6 0.5 -12t1.5 -12q2 -17 8 -35t18 -43q38 19 63 47.5t31 58.5q1 4 1.5 9t0.5 9
v1z" />
    <glyph glyph-name="quotesingle" unicode="'" horiz-adv-x="188" 
d="M86 716h96v-117l-23 -137h-50l-23 137v117v0z" />
    <glyph glyph-name="parenleft" unicode="(" horiz-adv-x="292" 
d="M286 691h48q-29 -38 -55.5 -83t-51.5 -100l-13.5 -28t-12.5 -29q-15 -34 -28.5 -89t-22.5 -114q-8 -46 -12 -90.5t-4 -78.5q0 -84 16 -164t46 -145h-42q-28 53 -53.5 125.5t-38.5 147.5q-4 28 -6.5 55t-2.5 53q0 161 67.5 289.5t165.5 249.5v1z" />
    <glyph glyph-name="parenright" unicode=")" horiz-adv-x="292" 
d="M-7 -230h-48q30 37 56 82t51 100l13.5 28l12.5 28q15 34 28.5 89t22.5 114q8 46 12 90.5t4 78.5q0 85 -16 165t-46 145l42 1q28 -54 53.5 -126.5t38.5 -148.5q4 -28 6.5 -55t2.5 -53q0 -160 -67.5 -288.5t-164.5 -249.5h-1z" />
    <glyph glyph-name="asterisk" unicode="*" horiz-adv-x="448" 
d="M291 665l-25 -127l4 -2l4 -2q4 -1 7 -3t5 -4l84 81q3 2 6 4.5t6 5.5q10 7 18.5 10.5t15.5 3.5q14 0 23 -10t9 -26q0 -12 -7.5 -22.5t-24.5 -16.5l-124 -44q1 -3 1.5 -6.5t0.5 -7.5v-2.5t-1 -2.5q0 -1 -0.5 -2.5t-0.5 -2.5l101 -36q29 -11 42 -23t13 -28v-3.5t-1 -3.5
q-3 -9 -12 -17.5t-19 -8.5q-11 0 -26 9t-32 26l-72 72q-4 -5 -9.5 -8t-10.5 -3l23 -122q1 -7 1.5 -12.5t0.5 -10.5q0 -19 -8 -31t-25 -12t-25.5 13t-8.5 34q0 7 1 14l2 14l24 114q-3 -1 -5 -0.5t-4 1.5t-4 3t-6 5l-78 -71q-9 -9 -16.5 -15.5t-14.5 -10.5t-13.5 -6t-13.5 -2
q-11 0 -20.5 10t-9.5 23q0 20 16.5 31.5t37.5 18.5l105 37q0 1 -0.5 2.5t-0.5 3.5v3v3v5.5t1 4.5l-113 43q-21 7 -32.5 17.5t-11.5 21.5q0 17 10.5 28t24.5 11q10 0 20.5 -7.5t26.5 -21.5l82 -76l0.5 0.5t1.5 0.5q2 3 6 4.5t8 2.5q1 1 1.5 1h1.5l-23 120l-2 12.5t-1 13.5
q0 18 7.5 30t25.5 12t26.5 -12.5t8.5 -30.5q0 -4 -0.5 -8.5t-1.5 -9.5v1z" />
    <glyph glyph-name="plus" unicode="+" horiz-adv-x="584" 
d="M266 589h82v-195h195v-82h-195v-195h-82v195h-195v82h195v195v0z" />
    <glyph glyph-name="comma" unicode="," horiz-adv-x="198" 
d="M-24 -144l6 44q34 11 50 32t16 54q-19 8 -29 20.5t-10 29.5q0 26 17.5 42.5t45.5 16.5q27 0 45 -22.5t18 -56.5q0 -56 -44 -100t-114 -60h-1z" />
    <glyph glyph-name="hyphen" unicode="-" horiz-adv-x="250" 
d="M250 265l-12 -85h-238l12 85h238v0z" />
    <glyph glyph-name="period" unicode="." horiz-adv-x="198" 
d="M74 102q24 -1 41 -18t17 -41t-17 -40.5t-41 -16.5t-41 16.5t-17 40.5t17 41t41 17v1z" />
    <glyph glyph-name="slash" unicode="/" horiz-adv-x="281" 
d="M28 -9l196 700h70l-196 -700h-70v0z" />
    <glyph glyph-name="zero" unicode="0" horiz-adv-x="521" 
d="M501 444q0 -26 -2 -52.5t-6 -52.5q-18 -131 -83 -239.5t-179 -108.5q-88 0 -134 60t-46 182q0 38 6 87t19 100q27 101 86.5 185.5t163.5 84.5q78 0 126.5 -58.5t48.5 -188.5v1zM409 455q0 75 -21.5 114.5t-65.5 39.5h-1.5h-1.5q-63 -3 -116.5 -114t-57.5 -243v-8.5v-8.5
q0 -79 21.5 -121.5t63.5 -42.5q69 0 124 118t55 265v1z" />
    <glyph glyph-name="one" unicode="1" horiz-adv-x="521" 
d="M374 691l-108 -691h-90l109 691h89v0z" />
    <glyph glyph-name="two" unicode="2" horiz-adv-x="521" 
d="M119 547l13 97q23 13 43.5 22t40.5 15q17 5 34.5 7t35.5 2q74 0 119.5 -44.5t45.5 -118.5q0 -71 -61 -169.5t-207 -274.5l260 1l-12 -84h-414q206 251 276.5 360.5t70.5 159.5q0 40 -25.5 62.5t-70.5 22.5q-34 0 -71.5 -15t-77.5 -44v1z" />
    <glyph glyph-name="three" unicode="3" horiz-adv-x="521" 
d="M129 567l13 94q23 9 46.5 15.5t47.5 10.5l23.5 2t23.5 1q83 0 133 -48.5t50 -128.5q0 -56 -34 -97.5t-99 -65.5q46 -19 69 -57.5t23 -96.5q0 -17 -4 -36t-12 -39q-20 -49 -72.5 -89.5t-148.5 -40.5q-47 0 -89 11t-75 26l12 82l9.5 -5.5t8.5 -4.5q29 -13 59.5 -21t70.5 -8
q66 0 106.5 34.5t40.5 90.5q0 52 -30 80t-65 33q-5 0 -9.5 0.5t-9.5 0.5h-5.5h-4.5l11 82q69 4 106 34t46 65q1 5 1.5 10.5t0.5 10.5q0 44 -29 70.5t-78 26.5q-12 0 -24.5 -1.5t-24.5 -4.5q-23 -5 -45 -14.5t-42 -22.5v1z" />
    <glyph glyph-name="four" unicode="4" horiz-adv-x="521" 
d="M455 691l-63 -408h98l-10 -73h-101l-33 -210h-87l36 210h-256v39l362 442h54v0zM343 515l-189 -232h152l39 230l-2 2v0z" />
    <glyph glyph-name="five" unicode="5" horiz-adv-x="521" 
d="M477 682l-15 -84h-196l-27 -170q90 -5 142.5 -58.5t52.5 -140.5q0 -106 -71.5 -172t-184.5 -66q-48 0 -88.5 12.5t-74.5 37.5l31 80q10 -8 19.5 -14.5t18.5 -11.5q23 -12 47.5 -18t51.5 -6q69 0 113 44t44 113q0 54 -38.5 86t-103.5 32h-9.5t-8.5 -1q-9 -1 -18.5 -2.5
t-23.5 -4.5l61 344h278v0z" />
    <glyph glyph-name="six" unicode="6" horiz-adv-x="521" 
d="M414 682l-196 -286l2 -2q16 11 38 16.5t50 5.5q74 0 117.5 -46.5t43.5 -124.5q0 -100 -71.5 -177t-163.5 -77q-84 0 -132 55t-48 152q0 31 10.5 67.5t27.5 74.5q12 25 26 50t30 48l166 244h100v0zM380 239q0 42 -25.5 69t-66.5 27q-59 0 -102 -44t-43 -103q0 -49 26 -81
t67 -32q56 0 100 49t44 114v1z" />
    <glyph glyph-name="seven" unicode="7" horiz-adv-x="521" 
d="M528 682l-319 -691h-93l280 607h-275l12 84h395v0z" />
    <glyph glyph-name="eight" unicode="8" horiz-adv-x="521" 
d="M376 356q47 -21 68.5 -56.5t21.5 -89.5q0 -93 -67.5 -156t-166.5 -63q-86 0 -139 51.5t-53 136.5q0 69 38 118t108 69q-41 26 -59 57t-18 77q0 78 58.5 134t139.5 56q84 0 134.5 -47.5t50.5 -127.5q0 -55 -31 -97.5t-85 -62.5v1zM377 209q0 49 -30 78.5t-83 29.5
q-55 0 -95 -41.5t-40 -97.5q0 -46 31 -76.5t78 -30.5q57 0 98 40.5t41 96.5v1zM403 515q0 41 -26 67.5t-67 26.5q-46 0 -79 -34t-33 -81q0 -43 25.5 -69.5t67.5 -26.5q46 0 79 34.5t33 81.5v1z" />
    <glyph glyph-name="nine" unicode="9" horiz-adv-x="521" 
d="M129 -9l202 294l-2 2q-9 -6 -17.5 -10t-16.5 -7q-12 -4 -25 -6t-28 -2q-72 0 -118 46t-46 116q0 108 71 187t168 79q77 0 127 -56t50 -143v-2v-3q-1 -52 -20 -109.5t-77 -141.5l-168 -244h-100v0zM402 488q0 52 -25 83t-68 31q-55 0 -97 -48.5t-42 -113.5q0 -46 24 -71.5
t70 -25.5q53 0 95.5 44.5t42.5 99.5v1z" />
    <glyph glyph-name="colon" unicode=":" horiz-adv-x="198" 
d="M74 102q24 -1 41 -18t17 -41t-17 -40.5t-41 -16.5t-41 16.5t-17 40.5t17 41t41 17v1zM130 463q24 -1 41 -18t17 -41t-17 -41t-41 -17t-41 17t-17 41t17 41t41 17v1z" />
    <glyph glyph-name="semicolon" unicode=";" horiz-adv-x="198" 
d="M-10 -144l6 44q34 11 50 32t16 54q-19 8 -29 20.5t-10 29.5q0 26 17.5 42.5t45.5 16.5q27 0 45 -22.5t18 -56.5q0 -56 -44 -100t-114 -60h-1zM130 463q24 -1 41 -18t17 -41t-17 -41t-41 -17t-41 17t-17 41t17 41t41 17v1z" />
    <glyph glyph-name="less" unicode="&#x3c;" horiz-adv-x="584" 
d="M70 313v82l474 202v-87l-376 -156l376 -156v-87l-474 202v0z" />
    <glyph glyph-name="equal" unicode="=" horiz-adv-x="584" 
d="M71 285h472v-82h-472v82v0zM71 503h472v-82h-472v82v0z" />
    <glyph glyph-name="greater" unicode="&#x3e;" horiz-adv-x="584" 
d="M544 313l-474 -202v87l376 156l-376 156v87l474 -202v-82v0z" />
    <glyph glyph-name="question" unicode="?" horiz-adv-x="354" 
d="M118 102q24 -1 41 -18t17 -41t-17 -40.5t-41 -16.5t-41 16.5t-17 40.5t17 41t41 17v1zM88 554l14 99q20 12 37.5 20t34.5 12q10 3 20 4t20 1q66 0 106 -42t40 -112q0 -46 -20.5 -80t-48.5 -66q-9 -9 -17 -18t-17 -18q-33 -37 -62 -81t-38 -108l-55 1q0 79 26.5 133.5
t59.5 95.5l42 51.5t32 45.5q5 11 8 21t3 21q0 33 -19.5 54t-54.5 21q-19 0 -43 -10t-48 -29l-10 -8t-10 -9v1z" />
    <glyph glyph-name="at" unicode="@" horiz-adv-x="1010" 
d="M891 9h90q-65 -107 -173 -163t-260 -56q-230 0 -362 116.5t-132 321.5q0 34 4.5 69.5t14.5 72.5q35 134 145.5 246t318.5 112q182 0 300.5 -107.5t118.5 -273.5q0 -133 -90 -241t-202 -108q-48 0 -72.5 20t-24.5 61q-21 -25 -45.5 -42.5t-49.5 -27.5q-13 -5 -26.5 -7.5
t-26.5 -2.5q-77 0 -128 62t-51 158q0 117 79 213t175 96q45 0 83 -23t64 -67l17 77h88l-82 -377q-1 -7 -2 -12.5t-1 -10.5q1 -18 9.5 -28t25.5 -10q13 0 37.5 12t51.5 36q36 33 67 88.5t31 134.5q0 133 -99.5 221t-250.5 88q-175 0 -290.5 -119.5t-115.5 -301.5
q0 -178 111 -276t311 -98q125 0 211.5 42t130.5 104v1zM332 213q0 -65 29.5 -104.5t77.5 -39.5q65 0 119.5 77t54.5 169q0 65 -30.5 104t-82.5 39q-64 0 -116 -76t-52 -170v1z" />
    <glyph glyph-name="A" unicode="A" horiz-adv-x="521" 
d="M352 686l133 -686h-84l-41 214h-214l-90 -214h-91l301 686h86v0zM292 566l-116 -280h170l-52 280h-2v0z" />
    <glyph glyph-name="B" unicode="B" horiz-adv-x="510" 
d="M134 682h100q119 -1 167.5 -53t48.5 -121q0 -43 -23.5 -77.5t-70.5 -57.5q70 -24 105.5 -70t35.5 -113q0 -87 -69.5 -138.5t-176.5 -51.5h-212l95 682v0zM175 333l-36 -257h103q78 -1 120.5 29.5t42.5 88.5q0 60 -49.5 99t-114.5 39l-66 1v0zM213 604l-27 -195h49
q56 -1 89.5 27t33.5 74q0 43 -27.5 68.5t-89.5 25.5h-13.5t-14.5 -1v1z" />
    <glyph glyph-name="C" unicode="C" horiz-adv-x="552" 
d="M580 691l-18 -86h-50q-160 -1 -241 -69.5t-108 -150.5q-9 -28 -13 -54.5t-4 -50.5q0 -93 48.5 -148.5t130.5 -55.5q23 0 51 7t56 19q26 11 50.5 26t46.5 32l-15 -109q-15 -9 -29.5 -16.5t-29.5 -13.5q-37 -15 -73.5 -22.5t-69.5 -7.5q-116 0 -189.5 79t-73.5 204
q0 179 124.5 297.5t341.5 118.5l65 1v0z" />
    <glyph glyph-name="D" unicode="D" horiz-adv-x="656" 
d="M39 0l97 682h81q101 -1 181.5 -28t132.5 -82q43 -44 64.5 -102.5t21.5 -130.5q0 -133 -82 -236t-274 -103h-222v0zM216 600l-73 -519h82q95 -1 142 15t83 50q29 28 49.5 79.5t20.5 116.5q0 107 -57.5 165t-126.5 79q-23 7 -45.5 10t-43.5 3l-31 1v0z" />
    <glyph glyph-name="E" unicode="E" horiz-adv-x="510" 
d="M498 682l-11 -81h-273l-30 -214h241l-11 -81h-242l-33 -225h359l-12 -81h-448l99 682h361v0z" />
    <glyph glyph-name="F" unicode="F" horiz-adv-x="417" 
d="M455 682l-11 -81h-237l-30 -214h218l-12 -81h-218l-43 -306h-91l99 682h325v0z" />
    <glyph glyph-name="G" unicode="G" horiz-adv-x="604" 
d="M577 296l-35 -245q-7 -5 -14.5 -8.5t-14.5 -7.5q-43 -20 -88 -32t-103 -12q-145 0 -216 93t-71 206q0 31 6 65t18 68q37 100 141 183.5t303 83.5q20 0 47.5 -2t70.5 -7l-11 -81q-41 3 -64 5t-43 3h-6.5h-7.5q-152 0 -233.5 -69.5t-108.5 -152.5q-8 -24 -11.5 -47.5
t-3.5 -45.5q0 -98 55 -159.5t142 -61.5q16 0 34 2.5t37 7.5q15 4 30.5 10t29.5 13l16 119h-97l10 72h188v0z" />
    <glyph glyph-name="H" unicode="H" horiz-adv-x="698" 
d="M687 682l-96 -682h-94l43 302h-369l-42 -302h-94l96 682h93l-41 -295h369l41 295h94v0z" />
    <glyph glyph-name="I" unicode="I" horiz-adv-x="240" 
d="M229 682l-96 -682h-94l96 682h94v0z" />
    <glyph glyph-name="J" unicode="J" horiz-adv-x="240" 
d="M232 682l-103 -732q-12 -86 -54.5 -133t-120.5 -47q-16 0 -32.5 1.5t-32.5 4.5l-22 84q18 -4 31.5 -5.5t25.5 -2.5h5h5q49 0 73.5 24t32.5 80l102 726h90v0z" />
    <glyph glyph-name="K" unicode="K" horiz-adv-x="563" 
d="M573 682l-314 -315l305 -367h-107l-281 357l-50 -357h-92l96 682h92l-45 -292l2 -2l290 294h104v0z" />
    <glyph glyph-name="L" unicode="L" horiz-adv-x="417" 
d="M221 682l-89 -606h280l-11 -76h-366l96 682h90v0z" />
    <glyph glyph-name="M" unicode="M" horiz-adv-x="813" 
d="M743 682v-682h-90v517h-2l-274 -517l-118 522h-2l-168 -522h-90l225 682h78l106 -462l245 462h90v0z" />
    <glyph glyph-name="N" unicode="N" horiz-adv-x="688" 
d="M678 682l-96 -682h-49l-339 498l-70 -498h-85l96 682h46l341 -502l71 502h85v0z" />
    <glyph glyph-name="O" unicode="O" horiz-adv-x="656" 
d="M623 405q0 -185 -99 -299.5t-230 -114.5q-107 0 -175 80t-68 207q0 25 3 51.5t9 53.5q26 115 106 211t213 96q109 0 175 -79t66 -207v1zM531 421q0 89 -41 138t-109 49q-96 0 -152.5 -77.5t-75.5 -171.5q-5 -24 -7.5 -47.5t-2.5 -46.5q0 -90 41.5 -141.5t111.5 -51.5
q95 0 165 101.5t70 246.5v1z" />
    <glyph glyph-name="P" unicode="P" horiz-adv-x="448" 
d="M123 682h117q6 -1 11.5 -1t11.5 -1q74 -4 136 -44.5t62 -147.5q0 -16 -3.5 -34.5t-10.5 -37.5q-19 -48 -67 -88.5t-137 -40.5l-82 1l-40 -288h-94l96 682v0zM205 601l-32 -232h66q62 -1 92 31t36 70q1 5 1.5 10.5t0.5 10.5q0 41 -28 75t-96 34l-40 1v0z" />
    <glyph glyph-name="Q" unicode="Q" horiz-adv-x="656" 
d="M623 -15h15q0 -6 -0.5 -12t-1.5 -12q-9 -59 -47 -107.5t-115 -48.5q-9 0 -18 0.5t-18 2.5q-57 10 -109 54.5t-81 137.5q-94 18 -145.5 96t-51.5 194q0 28 4 58t13 61q29 105 107 193t204 88q113 0 178.5 -76.5t65.5 -210.5q0 -154 -74.5 -264t-199.5 -139
q17 -55 57.5 -84t86.5 -29q11 0 24 2.5t26 8.5q24 10 46 31t34 56v0zM531 416q0 94 -40 143t-109 49q-89 0 -141.5 -64.5t-76.5 -141.5q-11 -36 -16 -71t-5 -63q0 -94 42.5 -140.5t116.5 -46.5q93 0 161 96t68 238v1z" />
    <glyph glyph-name="R" unicode="R" horiz-adv-x="531" 
d="M132 682h123q66 -1 106.5 -12t69.5 -37q28 -25 42 -59.5t14 -77.5q0 -61 -37.5 -105.5t-102.5 -61.5q16 -10 31 -30.5t26 -44.5l122 -254h-98l-78 162q-19 39 -34 65t-29 42q-17 18 -35.5 24.5t-43.5 6.5l-36 1l-42 -301h-94l96 682v0zM214 601l-30 -219h48
q81 -1 115.5 29.5t40.5 67.5q1 5 1.5 11t0.5 11q0 48 -31 73.5t-92 25.5l-53 1v0z" />
    <glyph glyph-name="S" unicode="S" horiz-adv-x="458" 
d="M439 664l-13 -93q-16 9 -30.5 16t-29.5 11t-29.5 6t-30.5 2q-55 0 -87.5 -28t-32.5 -75q0 -27 16.5 -50t41.5 -45q13 -11 28 -22.5l30 -23.5q43 -36 79 -81t36 -111q0 -6 -0.5 -12t-1.5 -12q-8 -59 -58 -107t-142 -48q-30 0 -68 8.5t-77 28.5q-5 3 -10 5.5t-10 5.5
l14 101q54 -38 91.5 -52t68.5 -14q8 0 18.5 2t21.5 6q23 9 42 28t19 52t-20.5 59.5t-49.5 52.5l-22.5 18.5l-22.5 18.5q-44 36 -80 81t-36 112q0 84 68 135t152 51q17 0 44 -4t56 -13q6 -3 12.5 -5t12.5 -5v1z" />
    <glyph glyph-name="T" unicode="T" horiz-adv-x="510" 
d="M557 682l-12 -85h-192l-84 -597h-94l84 597h-192l12 85h478v0z" />
    <glyph glyph-name="U" unicode="U" horiz-adv-x="635" 
d="M637 682l-59 -421q-19 -140 -94.5 -205t-189.5 -65q-106 0 -170 57t-64 154q0 10 1 20l2 20l62 440h90l-63 -446q-1 -8 -1.5 -15t-0.5 -14q0 -67 44 -101t105 -34h4.5h4.5q34 2 66 14.5t56 36.5q26 26 38 65.5t20 100.5l55 393h94v0z" />
    <glyph glyph-name="V" unicode="V" horiz-adv-x="510" 
d="M565 682l-333 -688h-35l-133 688h88l89 -476h2l228 476h94v0z" />
    <glyph glyph-name="W" unicode="W" horiz-adv-x="927" 
d="M986 682l-330 -688h-35l-132 484l-232 -484h-36l-161 688h86l111 -483h2l230 483h35l133 -491l234 491h95v0z" />
    <glyph glyph-name="X" unicode="X" horiz-adv-x="667" 
d="M703 682l-292 -331l222 -351h-107l-177 281l-244 -281h-123l317 361l-202 321h103l162 -251l222 251h119v0z" />
    <glyph glyph-name="Y" unicode="Y" horiz-adv-x="490" 
d="M557 682l-239 -342l-48 -340h-90l48 340l-160 342h95l116 -250l174 250h104v0z" />
    <glyph glyph-name="Z" unicode="Z" horiz-adv-x="583" 
d="M647 682l-497 -597h404l-12 -85h-574l495 597h-388l12 85h560v0z" />
    <glyph glyph-name="bracketleft" unicode="[" horiz-adv-x="333" 
d="M376 682l-9 -66h-129l-108 -771h128l-9 -66h-211l127 903h211v0z" />
    <glyph glyph-name="backslash" unicode="\" horiz-adv-x="281" 
d="M279 -9h-70l-196 700h70l196 -700v0z" />
    <glyph glyph-name="bracketright" unicode="]" horiz-adv-x="333" 
d="M-48 -221l9 66h129l108 771h-128l9 66h211l-127 -903h-211v0z" />
    <glyph glyph-name="asciicircum" unicode="^" horiz-adv-x="469" 
d="M133 291h-90l173 391h71l173 -391h-89l-120 292l-118 -292v0z" />
    <glyph glyph-name="underscore" unicode="_" horiz-adv-x="500" 
d="M-6 -75h512v-50h-512v50v0z" />
    <glyph glyph-name="grave" unicode="`" horiz-adv-x="333" 
d="M201 670l68 -146h-56l-113 146h101v0z" />
    <glyph glyph-name="a" unicode="a" horiz-adv-x="469" 
d="M446 449l-63 -449h-85l8 52l-2 2q-26 -29 -57.5 -46t-63.5 -17q-62 0 -105 52t-43 125v10.5t1 11.5q6 102 77 187t227 85q10 0 22 -0.5t24 -2.5q17 -2 33 -4.5t27 -6.5v1zM316 130l37 259h-13.5h-13.5q-79 0 -122 -35.5t-61 -78.5q-12 -26 -16.5 -51t-4.5 -41
q0 -54 25 -88.5t64 -34.5q9 0 19.5 3t20.5 9q18 10 35.5 25t29.5 32v1z" />
    <glyph glyph-name="b" unicode="b" horiz-adv-x="469" 
d="M210 682l-38 -267l2 -2l19.5 17t19.5 14q16 10 33 14t37 4q71 0 114.5 -57t43.5 -148q0 -16 -1.5 -32t-4.5 -33q-16 -77 -81 -141.5t-205 -64.5h-14.5h-15.5q-26 1 -50 3t-39 4l93 689h87v0zM122 56h47q89 -1 137 55.5t48 147.5q0 62 -26 95.5t-71 33.5q-8 0 -19 -2
t-22 -6q-19 -7 -35.5 -19t-19.5 -30l-39 -275v0z" />
    <glyph glyph-name="c" unicode="c" horiz-adv-x="385" 
d="M357 100l-10 -82q-13 -8 -25.5 -13t-25.5 -9q-17 -5 -35.5 -7.5t-38.5 -2.5q-91 0 -144.5 56t-53.5 150q0 110 79 190t212 80q17 0 36.5 -2t40.5 -6l-11 -74q-17 3 -33 4.5t-32 1.5q-94 0 -149.5 -59t-55.5 -130q0 -64 33 -100t90 -36q20 0 38.5 3.5t36.5 10.5
q11 4 23 10.5l25 13.5v1z" />
    <glyph glyph-name="d" unicode="d" horiz-adv-x="469" 
d="M478 682l-96 -682q-3 -1 -5.5 -1.5t-5.5 -1.5q-24 -6 -49 -8.5t-55 -2.5q-113 0 -174.5 53.5t-61.5 153.5q0 22 6 49t19 54q28 62 93.5 114t176.5 52l36 1l31 219h85v0zM306 58l46 334h-22q-100 -1 -154 -59t-58 -127v-5.5v-5.5q0 -67 38.5 -103.5t110.5 -36.5h6.5h6.5
q6 0 12.5 0.5t13.5 1.5v1z" />
    <glyph glyph-name="e" unicode="e" horiz-adv-x="438" 
d="M388 117l-12 -81q-34 -26 -71.5 -38t-78.5 -12q-85 0 -136.5 59t-51.5 157q0 110 61.5 185t151.5 75q68 0 113.5 -51.5t45.5 -137.5q0 -10 -0.5 -20t-2.5 -21l-280 1q-2 -12 -3 -23t-1 -21q0 -68 36.5 -101t82.5 -33q32 0 68 15t78 46v1zM140 292h188q0 42 -19.5 71
t-61.5 29q-37 0 -63.5 -25t-43.5 -76v1z" />
    <glyph glyph-name="f" unicode="f" horiz-adv-x="271" 
d="M287 449l-11 -75h-91l-72 -563h-83l72 563h-72l11 75h71q7 101 58.5 171t157.5 70q16 0 31.5 -2t31.5 -5q11 -3 22.5 -6.5l23.5 -7.5l-12 -83q-8 3 -16 7t-17 7q-14 5 -28.5 7.5t-26.5 2.5q-62 0 -98 -41.5t-43 -120.5l91 1v0z" />
    <glyph glyph-name="g" unicode="g" horiz-adv-x="427" 
d="M445 449l-9 -66h-87q10 -15 16 -27.5t9 -24.5q3 -9 4 -18.5t1 -19.5q0 -56 -26.5 -98.5t-78.5 -64.5q-13 -5 -28.5 -8.5t-31.5 -6.5q-3 -1 -5 -1t-4 -1q-32 -6 -58 -14t-26 -29q0 -14 17.5 -21.5t44.5 -14.5q14 -4 29.5 -7.5t31.5 -8.5q46 -13 84.5 -38.5t38.5 -81.5
t-51.5 -92t-131.5 -36q-85 0 -139.5 33t-54.5 83q0 40 38.5 60t89.5 31v2q-42 16 -60 34t-18 44q0 28 25.5 50.5t63.5 32.5q-40 19 -60.5 52t-20.5 77q0 77 49.5 128t117.5 51l230 1v0zM286 -110q0 21 -30 38t-70 26q-43 -8 -79.5 -26t-36.5 -40q0 -25 32.5 -39.5
t88.5 -14.5q44 0 69.5 15.5t25.5 40.5v0zM298 290q0 39 -22.5 64t-57.5 25q-34 0 -61.5 -31.5t-27.5 -72.5q0 -40 23 -65.5t58 -25.5q39 0 61.5 29t25.5 63q1 4 1 7v6v1z" />
    <glyph glyph-name="h" unicode="h" horiz-adv-x="469" 
d="M202 682l-43 -305l2 -2q38 43 77 65t79 22q53 0 79 -36t25 -89v-15.5t-2 -16.5l-43 -305h-85l43 311q1 5 1.5 11t0.5 10q0 32 -14.5 49t-38.5 17q-17 0 -36 -10t-38 -27q-16 -14 -31.5 -32t-30.5 -38l-41 -291h-85l96 682h85v0z" />
    <glyph glyph-name="i" unicode="i" horiz-adv-x="188" 
d="M171 449l-63 -449h-85l63 449h85v0zM144 639q20 -1 34.5 -15.5t14.5 -34.5t-14.5 -34.5t-34.5 -14.5t-34.5 14.5t-14.5 34.5t14.5 34.5t34.5 14.5v1z" />
    <glyph glyph-name="j" unicode="j" horiz-adv-x="188" 
d="M20 -67l66 516h85l-69 -540q-10 -77 -55 -108t-99 -31q-5 0 -10 0.5t-10 0.5q-8 2 -16 3.5t-14 4.5l10 75q11 -2 20.5 -3.5t18.5 -1.5q31 0 49 19t24 65v0zM192 590q0 -21 -14.5 -35.5t-34.5 -14.5t-34.5 14.5t-14.5 34.5t14.5 34.5t34.5 14.5t34.5 -14.5t14.5 -34.5v1z
" />
    <glyph glyph-name="k" unicode="k" horiz-adv-x="458" 
d="M204 682l-61 -426l2 -2l188 195h108l-206 -212l220 -237h-108l-207 228l-32 -228h-84l95 682h85v0z" />
    <glyph glyph-name="l" unicode="l" horiz-adv-x="188" 
d="M204 682l-96 -682h-85l96 682h85v0z" />
    <glyph glyph-name="m" unicode="m" horiz-adv-x="740" 
d="M171 449l-12 -78l2 -2q41 46 79.5 66t75.5 20q8 0 16.5 -1t17.5 -4q22 -8 42 -30t26 -66q49 60 92 80.5t76 20.5q43 0 74.5 -30t31.5 -95q0 -9 -0.5 -19t-2.5 -21l-41 -290h-85l42 295q2 7 2 14v13q0 32 -12.5 49t-35.5 17q-22 0 -58 -21t-83 -83l-41 -284h-85l40 284
q2 10 2.5 19.5t0.5 17.5q0 32 -12 49.5t-41 17.5q-18 0 -43.5 -15.5t-52.5 -43.5l-20 -21t-19 -24l-40 -284h-85l64 449h85v0z" />
    <glyph glyph-name="n" unicode="n" horiz-adv-x="469" 
d="M178 449l-11 -79l2 -2q37 44 74.5 65.5t74.5 21.5q58 0 83 -40t27 -87v-5.5v-5.5q0 -9 -0.5 -18t-2.5 -17l-43 -282h-84l41 286q2 7 2 14v14q0 33 -12 49t-26 20q-3 1 -6.5 1.5t-6.5 0.5q-18 0 -52.5 -19t-82.5 -81l-41 -285h-84l63 449h85v0z" />
    <glyph glyph-name="o" unicode="o" horiz-adv-x="448" 
d="M418 267q0 -127 -62 -204t-151 -77q-79 0 -124 53t-45 147q0 118 62 197t153 79q77 0 122 -53.5t45 -142.5v1zM123 178q0 -55 23 -87.5t56 -32.5q53 0 91 60t38 153q0 56 -21.5 90t-58.5 34q-55 0 -91.5 -66t-36.5 -152v1z" />
    <glyph glyph-name="p" unicode="p" horiz-adv-x="490" 
d="M209 563l-16 -114q10 3 19 6t18 4q9 2 19 2.5t20 0.5q80 0 133 -59.5t53 -149.5q0 -18 -2.5 -37.5t-8.5 -38.5q-20 -72 -82.5 -131.5t-177.5 -59.5h-56l-30 -216h-85l80 568l-15.5 -13.5t-13.5 -13.5q-20 -21 -30.5 -38.5t-15.5 -17.5q-2 0 -3 1.5t-1 4.5q0 12 8 31.5
t22 40.5q11 17 26 34t31 30l23 166h85v0zM184 386l-46 -328h41q83 -1 128 47t57 106q2 10 3 21t1 21q0 76 -39.5 110.5t-88.5 34.5q-8 0 -14 -0.5t-11 -1.5q-7 -1 -14 -4l-17 -7v1z" />
    <glyph glyph-name="q" unicode="q" horiz-adv-x="469" 
d="M444 463l-97 -693h-85l34 243q-28 -14 -50.5 -20.5t-42.5 -6.5q-77 0 -124.5 55.5t-47.5 145.5q0 13 1.5 27t3.5 28q16 82 88.5 151t224.5 69l95 1v0zM305 76l44 317q-4 -1 -8.5 -1h-9.5q-105 0 -159 -59.5t-54 -150.5q0 -58 32 -92.5t85 -34.5q14 0 30 4.5t40 15.5v1z
" />
    <glyph glyph-name="r" unicode="r" horiz-adv-x="313" 
d="M185 449l-13 -85l2 -2q24 33 41 52.5t33 29.5q10 6 21 8.5t24 2.5h7.5t6.5 -1q5 0 10.5 -1.5t12.5 -4.5v-95q-9 4 -16.5 7t-15.5 5q-5 1 -10 1.5t-10 0.5q-15 0 -28 -4.5t-26 -15.5q-15 -13 -31.5 -36t-35.5 -59l-35 -252h-85l63 449h85v0z" />
    <glyph glyph-name="s" unicode="s" horiz-adv-x="354" 
d="M323 416v-89q-38 28 -72.5 43t-62.5 15q-26 0 -43.5 -13.5t-17.5 -33.5q0 -13 8.5 -24t21.5 -22q13 -10 28.5 -20l31.5 -21q33 -23 61 -54t28 -78q0 -61 -40 -97t-99 -36q-17 0 -32.5 2t-30.5 7q-21 5 -43 17t-50 32l15 83q44 -36 77.5 -52t60.5 -16q26 0 42 14t16 36
q0 19 -13 34.5t-33 30.5l-20.5 14.5t-21.5 14.5q-33 24 -60.5 54t-27.5 76q0 58 38.5 93.5t102.5 35.5q35 0 70 -12.5t66 -34.5v1z" />
    <glyph glyph-name="t" unicode="t" horiz-adv-x="281" 
d="M285 449l-9 -66h-90l-43 -246q-1 -10 -2 -18t-1 -15q0 -24 11.5 -33.5t35.5 -9.5h8t9 1q13 2 28.5 8t36.5 18l-5 -82q-15 -6 -28 -10.5t-26 -6.5q-9 -2 -18.5 -2.5t-20.5 -0.5q-58 0 -88.5 29t-30.5 72v6t1 6q0 2 0.5 5t0.5 6l47 273h-79l10 66h82l17 92h84l-16 -92h86v0
z" />
    <glyph glyph-name="u" unicode="u" horiz-adv-x="469" 
d="M436 449l-64 -449h-84l10 74l-2 2q-4 -6 -9 -10.5t-10 -9.5q-25 -24 -58 -43.5t-71 -19.5q-8 0 -16 1t-17 4q-28 8 -52 36t-24 84q0 3 0.5 5.5t0.5 5.5q0 5 0.5 11t1.5 12l42 297h85l-42 -296q-1 -8 -1.5 -15.5t-0.5 -13.5q0 -31 10.5 -45.5t23.5 -18.5q4 -2 8 -2.5
t8 -0.5q25 0 57 22t78 77l41 293h85v0z" />
    <glyph glyph-name="v" unicode="v" horiz-adv-x="375" 
d="M411 449l-231 -458h-42l-102 458h84l59 -285h2l144 285h86v0z" />
    <glyph glyph-name="w" unicode="w" horiz-adv-x="615" 
d="M647 449l-231 -458h-40l-58 294h-2l-152 -294h-39l-93 458h83l54 -302h2l146 302h42l56 -302h2l147 302h83v0z" />
    <glyph glyph-name="x" unicode="x" horiz-adv-x="427" 
d="M443 449l-181 -222l114 -227h-91l-82 168l-130 -168h-104l196 238l-106 211h91l71 -151l117 151h105v0z" />
    <glyph glyph-name="y" unicode="y" horiz-adv-x="375" 
d="M400 449l-322 -679h-90l122 257l-87 422h85l60 -309h2l141 309h89v0z" />
    <glyph glyph-name="z" unicode="z" horiz-adv-x="458" 
d="M447 449l-298 -374h261l-16 -75h-407l293 374h-227l10 75h384v0z" />
    <glyph glyph-name="braceleft" unicode="{" horiz-adv-x="333" 
d="M28 219v80q62 -1 81.5 42.5t19.5 119.5v89q0 86 31 131.5t111 45.5l39 1v-76h-15q-52 -1 -68.5 -20.5t-16.5 -81.5v-71q0 -102 -22.5 -149.5t-78.5 -71.5q56 -24 78.5 -71.5t22.5 -148.5v-71q0 -62 16.5 -81.5t68.5 -19.5h15v-76h-39q-80 0 -111 45.5t-31 132.5v88
q0 76 -19.5 119t-81.5 43v1z" />
    <glyph glyph-name="bar" unicode="|" horiz-adv-x="260" 
d="M108 -230v912h76v-912h-76v0z" />
    <glyph glyph-name="braceright" unicode="}" horiz-adv-x="333" 
d="M305 299v-80q-61 -1 -81 -44t-20 -120v-87q0 -87 -31 -132.5t-111 -45.5h-39v76h15q53 0 69 19.5t16 81.5v72q0 100 22.5 147.5t78.5 71.5q-56 24 -78.5 71.5t-22.5 148.5v73q0 61 -16 80.5t-69 19.5l-15 1v76h39q80 -1 111 -46.5t31 -132.5v-87q0 -77 20 -120.5
t81 -43.5v1z" />
    <glyph glyph-name="asciitilde" unicode="~" horiz-adv-x="584" 
d="M39 198v83q32 26 70.5 44.5t78.5 18.5q21 0 42 -5.5t42 -14.5l21 -8.5t21 -9.5l62 -26t58 -12q16 0 32.5 5t34.5 13q19 10 37.5 22.5t35.5 26.5v-82q-28 -25 -63 -43.5t-71 -20.5q-3 -1 -6 -1h-6q-21 0 -43.5 6.5t-45.5 15.5l-18 8l-18 8q-32 14 -63 26t-59 12
q-21 0 -41 -7t-40 -18q-15 -9 -30.5 -19.5t-30.5 -22.5v1z" />
    <glyph glyph-name="Adieresis" unicode="&#xc4;" horiz-adv-x="521" 
d="M352 686l133 -686h-84l-41 214h-214l-90 -214h-91l301 686h86v0zM292 566l-116 -280h170l-52 280h-2v0zM242 857q19 -1 32.5 -14.5t13.5 -32.5t-13.5 -32.5t-32.5 -13.5t-32.5 13.5t-13.5 32.5t13.5 32.5t32.5 13.5v1zM421 857q19 -1 32.5 -14.5t13.5 -32.5t-13.5 -32.5
t-32.5 -13.5t-32.5 13.5t-13.5 32.5t13.5 32.5t32.5 13.5v1z" />
    <glyph glyph-name="Aring" unicode="&#xc5;" horiz-adv-x="521" 
d="M352 686l133 -686h-84l-41 214h-214l-90 -214h-91l301 686h86v0zM292 566l-116 -280h170l-52 280h-2v0zM331 909q39 -1 66.5 -28.5t27.5 -66.5t-27.5 -66.5t-66.5 -27.5t-66.5 27.5t-27.5 66.5t27.5 66.5t66.5 27.5v1zM331 868q-22 -1 -38.5 -17t-16.5 -39
q0 -22 16.5 -38.5t38.5 -16.5q23 0 39 16.5t16 38.5q0 23 -16 39t-39 16v1z" />
    <glyph glyph-name="Ccedilla" unicode="&#xc7;" horiz-adv-x="552" 
d="M529 161l-15 -110q-51 -30 -104.5 -45.5t-108.5 -14.5l-5 -13q23 -11 34.5 -27t11.5 -41q0 -37 -30.5 -61.5t-75.5 -24.5h-10t-10 1q-13 1 -25 2.5t-23 3.5l12 46q15 -4 24.5 -5.5t17.5 -1.5q22 0 34.5 10.5t12.5 27.5q0 11 -6.5 19t-20.5 16l25 52q-98 15 -158 91
t-60 188q0 179 124.5 297.5t341.5 118.5l65 1l-18 -86h-50q-160 -1 -241 -69.5t-108 -150.5q-9 -28 -13 -54.5t-4 -50.5q0 -93 48.5 -148.5t130.5 -55.5q23 0 51 7t56 19q26 11 50.5 26t46.5 32v1z" />
    <glyph glyph-name="Eacute" unicode="&#xc9;" horiz-adv-x="510" 
d="M498 682l-11 -81h-273l-30 -214h241l-11 -81h-242l-33 -225h359l-12 -81h-448l99 682h361v0zM344 888h101l-113 -146h-56l68 146v0z" />
    <glyph glyph-name="Ntilde" unicode="&#xd1;" horiz-adv-x="688" 
d="M678 682l-96 -682h-49l-339 498l-70 -498h-85l96 682h46l341 -502l71 502h85v0zM535 870h39q0 -44 -20.5 -79.5t-61.5 -35.5q-10 0 -28.5 6l-38.5 13q-1 0 -2 0.5t-2 1.5l-37.5 11.5t-29.5 5.5q-14 0 -23 -10t-11 -27l-40 1q1 52 22.5 82.5t58.5 30.5q13 0 31 -5.5
t37 -12.5l1 -0.5t2 -0.5l38 -13t31 -6q14 0 23 10t11 27v1z" />
    <glyph glyph-name="Odieresis" unicode="&#xd6;" horiz-adv-x="656" 
d="M623 405q0 -185 -99 -299.5t-230 -114.5q-107 0 -175 80t-68 207q0 25 3 51.5t9 53.5q26 115 106 211t213 96q109 0 175 -79t66 -207v1zM531 421q0 89 -41 138t-109 49q-96 0 -152.5 -77.5t-75.5 -171.5q-5 -24 -7.5 -47.5t-2.5 -46.5q0 -90 41.5 -141.5t111.5 -51.5
q95 0 165 101.5t70 246.5v1zM321 857q19 -1 32.5 -14.5t13.5 -32.5t-13.5 -32.5t-32.5 -13.5t-32.5 13.5t-13.5 32.5t13.5 32.5t32.5 13.5v1zM500 857q19 -1 32.5 -14.5t13.5 -32.5t-13.5 -32.5t-32.5 -13.5t-32.5 13.5t-13.5 32.5t13.5 32.5t32.5 13.5v1z" />
    <glyph glyph-name="Udieresis" unicode="&#xdc;" horiz-adv-x="635" 
d="M637 682l-59 -421q-19 -140 -94.5 -205t-189.5 -65q-106 0 -170 57t-64 154q0 10 1 20l2 20l62 440h90l-63 -446q-1 -8 -1.5 -15t-0.5 -14q0 -67 44 -101t105 -34h4.5h4.5q34 2 66 14.5t56 36.5q26 26 38 65.5t20 100.5l55 393h94v0zM310 857q19 -1 32.5 -14.5
t13.5 -32.5t-13.5 -32.5t-32.5 -13.5t-32.5 13.5t-13.5 32.5t13.5 32.5t32.5 13.5v1zM489 857q19 -1 32.5 -14.5t13.5 -32.5t-13.5 -32.5t-32.5 -13.5t-32.5 13.5t-13.5 32.5t13.5 32.5t32.5 13.5v1z" />
    <glyph glyph-name="aacute" unicode="&#xe1;" horiz-adv-x="469" 
d="M446 449l-63 -449h-85l8 52l-2 2q-26 -29 -57.5 -46t-63.5 -17q-62 0 -105 52t-43 125v10.5t1 11.5q6 102 77 187t227 85q10 0 22 -0.5t24 -2.5q17 -2 33 -4.5t27 -6.5v1zM316 130l37 259h-13.5h-13.5q-79 0 -122 -35.5t-61 -78.5q-12 -26 -16.5 -51t-4.5 -41
q0 -54 25 -88.5t64 -34.5q9 0 19.5 3t20.5 9q18 10 35.5 25t29.5 32v1zM294 670h101l-113 -146h-56l68 146v0z" />
    <glyph glyph-name="agrave" unicode="&#xe0;" horiz-adv-x="469" 
d="M446 449l-63 -449h-85l8 52l-2 2q-26 -29 -57.5 -46t-63.5 -17q-62 0 -105 52t-43 125v10.5t1 11.5q6 102 77 187t227 85q10 0 22 -0.5t24 -2.5q17 -2 33 -4.5t27 -6.5v1zM316 130l37 259h-13.5h-13.5q-79 0 -122 -35.5t-61 -78.5q-12 -26 -16.5 -51t-4.5 -41
q0 -54 25 -88.5t64 -34.5q9 0 19.5 3t20.5 9q18 10 35.5 25t29.5 32v1zM289 670l68 -146h-56l-113 146h101v0z" />
    <glyph glyph-name="acircumflex" unicode="&#xe2;" horiz-adv-x="469" 
d="M446 449l-63 -449h-85l8 52l-2 2q-26 -29 -57.5 -46t-63.5 -17q-62 0 -105 52t-43 125v10.5t1 11.5q6 102 77 187t227 85q10 0 22 -0.5t24 -2.5q17 -2 33 -4.5t27 -6.5v1zM316 130l37 259h-13.5h-13.5q-79 0 -122 -35.5t-61 -78.5q-12 -26 -16.5 -51t-4.5 -41
q0 -54 25 -88.5t64 -34.5q9 0 19.5 3t20.5 9q18 10 35.5 25t29.5 32v1zM376 670l75 -148h-41l-83 99l-134 -99h-47l131 148h99v0z" />
    <glyph glyph-name="adieresis" unicode="&#xe4;" horiz-adv-x="469" 
d="M446 449l-63 -449h-85l8 52l-2 2q-26 -29 -57.5 -46t-63.5 -17q-62 0 -105 52t-43 125v10.5t1 11.5q6 102 77 187t227 85q10 0 22 -0.5t24 -2.5q17 -2 33 -4.5t27 -6.5v1zM316 130l37 259h-13.5h-13.5q-79 0 -122 -35.5t-61 -78.5q-12 -26 -16.5 -51t-4.5 -41
q0 -54 25 -88.5t64 -34.5q9 0 19.5 3t20.5 9q18 10 35.5 25t29.5 32v1zM218 639q19 -1 32.5 -14.5t13.5 -32.5t-13.5 -32.5t-32.5 -13.5t-32.5 13.5t-13.5 32.5t13.5 32.5t32.5 13.5v1zM397 639q19 -1 32.5 -14.5t13.5 -32.5t-13.5 -32.5t-32.5 -13.5t-32.5 13.5t-13.5 32.5
t13.5 32.5t32.5 13.5v1z" />
    <glyph glyph-name="atilde" unicode="&#xe3;" horiz-adv-x="469" 
d="M446 449l-63 -449h-85l8 52l-2 2q-26 -29 -57.5 -46t-63.5 -17q-62 0 -105 52t-43 125v10.5t1 11.5q6 102 77 187t227 85q10 0 22 -0.5t24 -2.5q17 -2 33 -4.5t27 -6.5v1zM316 130l37 259h-13.5h-13.5q-79 0 -122 -35.5t-61 -78.5q-12 -26 -16.5 -51t-4.5 -41
q0 -54 25 -88.5t64 -34.5q9 0 19.5 3t20.5 9q18 10 35.5 25t29.5 32v1zM396 652h39q0 -44 -20.5 -79.5t-61.5 -35.5q-10 0 -28.5 6l-38.5 13q-1 0 -2 0.5t-2 1.5l-37.5 11.5t-29.5 5.5q-14 0 -23 -10t-11 -27l-40 1q1 52 22.5 82.5t58.5 30.5q13 0 31 -5.5t37 -12.5l1 -0.5
t2 -0.5l38 -13t31 -6q14 0 23 10t11 27v1z" />
    <glyph glyph-name="aring" unicode="&#xe5;" horiz-adv-x="469" 
d="M446 449l-63 -449h-85l8 52l-2 2q-26 -29 -57.5 -46t-63.5 -17q-62 0 -105 52t-43 125v10.5t1 11.5q6 102 77 187t227 85q10 0 22 -0.5t24 -2.5q17 -2 33 -4.5t27 -6.5v1zM316 130l37 259h-13.5h-13.5q-79 0 -122 -35.5t-61 -78.5q-12 -26 -16.5 -51t-4.5 -41
q0 -54 25 -88.5t64 -34.5q9 0 19.5 3t20.5 9q18 10 35.5 25t29.5 32v1zM307 691q39 -1 66.5 -28.5t27.5 -66.5t-27.5 -66.5t-66.5 -27.5t-66.5 27.5t-27.5 66.5t27.5 66.5t66.5 27.5v1zM307 650q-22 -1 -38.5 -17t-16.5 -39q0 -22 16.5 -38.5t38.5 -16.5q23 0 39 16.5
t16 38.5q0 23 -16 39t-39 16v1z" />
    <glyph glyph-name="ccedilla" unicode="&#xe7;" horiz-adv-x="385" 
d="M357 100l-10 -82q-10 -6 -19.5 -10.5t-18.5 -7.5q-21 -7 -43.5 -10.5t-49.5 -3.5l-5 -13q23 -11 34.5 -27t11.5 -41q0 -37 -30.5 -61.5t-75.5 -24.5h-10t-10 1q-13 1 -25 2.5t-23 3.5l12 46q15 -4 24.5 -5.5t17.5 -1.5q22 0 34.5 10.5t12.5 27.5q0 11 -6.5 19t-20.5 16
l25 52q-73 10 -115.5 64t-42.5 138q0 110 79 190t212 80q17 0 36.5 -2t40.5 -6l-11 -74q-17 3 -33 4.5t-32 1.5q-94 0 -149.5 -59t-55.5 -130q0 -64 33 -100t90 -36q20 0 38.5 3.5t36.5 10.5q11 4 23 10.5l25 13.5v1z" />
    <glyph glyph-name="eacute" unicode="&#xe9;" horiz-adv-x="438" 
d="M388 117l-12 -81q-34 -26 -71.5 -38t-78.5 -12q-85 0 -136.5 59t-51.5 157q0 110 61.5 185t151.5 75q68 0 113.5 -51.5t45.5 -137.5q0 -10 -0.5 -20t-2.5 -21l-280 1q-2 -12 -3 -23t-1 -21q0 -68 36.5 -101t82.5 -33q32 0 68 15t78 46v1zM140 292h188q0 42 -19.5 71
t-61.5 29q-37 0 -63.5 -25t-43.5 -76v1zM279 670h101l-113 -146h-56l68 146v0z" />
    <glyph glyph-name="egrave" unicode="&#xe8;" horiz-adv-x="438" 
d="M388 117l-12 -81q-34 -26 -71.5 -38t-78.5 -12q-85 0 -136.5 59t-51.5 157q0 110 61.5 185t151.5 75q68 0 113.5 -51.5t45.5 -137.5q0 -10 -0.5 -20t-2.5 -21l-280 1q-2 -12 -3 -23t-1 -21q0 -68 36.5 -101t82.5 -33q32 0 68 15t78 46v1zM140 292h188q0 42 -19.5 71
t-61.5 29q-37 0 -63.5 -25t-43.5 -76v1zM254 670l68 -146h-56l-113 146h101v0z" />
    <glyph glyph-name="ecircumflex" unicode="&#xea;" horiz-adv-x="438" 
d="M388 117l-12 -81q-34 -26 -71.5 -38t-78.5 -12q-85 0 -136.5 59t-51.5 157q0 110 61.5 185t151.5 75q68 0 113.5 -51.5t45.5 -137.5q0 -10 -0.5 -20t-2.5 -21l-280 1q-2 -12 -3 -23t-1 -21q0 -68 36.5 -101t82.5 -33q32 0 68 15t78 46v1zM140 292h188q0 42 -19.5 71
t-61.5 29q-37 0 -63.5 -25t-43.5 -76v1zM341 670l75 -148h-41l-83 99l-134 -99h-47l131 148h99v0z" />
    <glyph glyph-name="edieresis" unicode="&#xeb;" horiz-adv-x="438" 
d="M388 117l-12 -81q-34 -26 -71.5 -38t-78.5 -12q-85 0 -136.5 59t-51.5 157q0 110 61.5 185t151.5 75q68 0 113.5 -51.5t45.5 -137.5q0 -10 -0.5 -20t-2.5 -21l-280 1q-2 -12 -3 -23t-1 -21q0 -68 36.5 -101t82.5 -33q32 0 68 15t78 46v1zM140 292h188q0 42 -19.5 71
t-61.5 29q-37 0 -63.5 -25t-43.5 -76v1zM183 639q19 -1 32.5 -14.5t13.5 -32.5t-13.5 -32.5t-32.5 -13.5t-32.5 13.5t-13.5 32.5t13.5 32.5t32.5 13.5v1zM362 639q19 -1 32.5 -14.5t13.5 -32.5t-13.5 -32.5t-32.5 -13.5t-32.5 13.5t-13.5 32.5t13.5 32.5t32.5 13.5v1z" />
    <glyph glyph-name="iacute" unicode="&#xed;" horiz-adv-x="188" 
d="M171 449l-63 -449h-85l63 449h85v0zM154 670h101l-113 -146h-56l68 146v0z" />
    <glyph glyph-name="igrave" unicode="&#xec;" horiz-adv-x="188" 
d="M171 449l-63 -449h-85l63 449h85v0zM129 670l68 -146h-56l-113 146h101v0z" />
    <glyph glyph-name="icircumflex" unicode="&#xee;" horiz-adv-x="188" 
d="M171 449l-63 -449h-85l63 449h85v0zM216 670l75 -148h-41l-83 99l-134 -99h-47l131 148h99v0z" />
    <glyph glyph-name="idieresis" unicode="&#xef;" horiz-adv-x="188" 
d="M171 449l-63 -449h-85l63 449h85v0zM58 639q19 -1 32.5 -14.5t13.5 -32.5t-13.5 -32.5t-32.5 -13.5t-32.5 13.5t-13.5 32.5t13.5 32.5t32.5 13.5v1zM237 639q19 -1 32.5 -14.5t13.5 -32.5t-13.5 -32.5t-32.5 -13.5t-32.5 13.5t-13.5 32.5t13.5 32.5t32.5 13.5v1z" />
    <glyph glyph-name="ntilde" unicode="&#xf1;" horiz-adv-x="469" 
d="M178 449l-11 -79l2 -2q37 44 74.5 65.5t74.5 21.5q58 0 83 -40t27 -87v-5.5v-5.5q0 -9 -0.5 -18t-2.5 -17l-43 -282h-84l41 286q2 7 2 14v14q0 33 -12 49t-26 20q-3 1 -6.5 1.5t-6.5 0.5q-18 0 -52.5 -19t-82.5 -81l-41 -285h-84l63 449h85v0zM396 652h39
q0 -44 -20.5 -79.5t-61.5 -35.5q-10 0 -28.5 6l-38.5 13q-1 0 -2 0.5t-2 1.5l-37.5 11.5t-29.5 5.5q-14 0 -23 -10t-11 -27l-40 1q1 52 22.5 82.5t58.5 30.5q13 0 31 -5.5t37 -12.5l1 -0.5t2 -0.5l38 -13t31 -6q14 0 23 10t11 27v1z" />
    <glyph glyph-name="oacute" unicode="&#xf3;" horiz-adv-x="448" 
d="M418 267q0 -127 -62 -204t-151 -77q-79 0 -124 53t-45 147q0 118 62 197t153 79q77 0 122 -53.5t45 -142.5v1zM123 178q0 -55 23 -87.5t56 -32.5q53 0 91 60t38 153q0 56 -21.5 90t-58.5 34q-55 0 -91.5 -66t-36.5 -152v1zM284 670h101l-113 -146h-56l68 146v0z" />
    <glyph glyph-name="ograve" unicode="&#xf2;" horiz-adv-x="448" 
d="M418 267q0 -127 -62 -204t-151 -77q-79 0 -124 53t-45 147q0 118 62 197t153 79q77 0 122 -53.5t45 -142.5v1zM123 178q0 -55 23 -87.5t56 -32.5q53 0 91 60t38 153q0 56 -21.5 90t-58.5 34q-55 0 -91.5 -66t-36.5 -152v1zM259 670l68 -146h-56l-113 146h101v0z" />
    <glyph glyph-name="ocircumflex" unicode="&#xf4;" horiz-adv-x="448" 
d="M418 267q0 -127 -62 -204t-151 -77q-79 0 -124 53t-45 147q0 118 62 197t153 79q77 0 122 -53.5t45 -142.5v1zM123 178q0 -55 23 -87.5t56 -32.5q53 0 91 60t38 153q0 56 -21.5 90t-58.5 34q-55 0 -91.5 -66t-36.5 -152v1zM346 670l75 -148h-41l-83 99l-134 -99h-47
l131 148h99v0z" />
    <glyph glyph-name="odieresis" unicode="&#xf6;" horiz-adv-x="448" 
d="M418 267q0 -127 -62 -204t-151 -77q-79 0 -124 53t-45 147q0 118 62 197t153 79q77 0 122 -53.5t45 -142.5v1zM123 178q0 -55 23 -87.5t56 -32.5q53 0 91 60t38 153q0 56 -21.5 90t-58.5 34q-55 0 -91.5 -66t-36.5 -152v1zM188 639q19 -1 32.5 -14.5t13.5 -32.5
t-13.5 -32.5t-32.5 -13.5t-32.5 13.5t-13.5 32.5t13.5 32.5t32.5 13.5v1zM367 639q19 -1 32.5 -14.5t13.5 -32.5t-13.5 -32.5t-32.5 -13.5t-32.5 13.5t-13.5 32.5t13.5 32.5t32.5 13.5v1z" />
    <glyph glyph-name="otilde" unicode="&#xf5;" horiz-adv-x="448" 
d="M418 267q0 -127 -62 -204t-151 -77q-79 0 -124 53t-45 147q0 118 62 197t153 79q77 0 122 -53.5t45 -142.5v1zM123 178q0 -55 23 -87.5t56 -32.5q53 0 91 60t38 153q0 56 -21.5 90t-58.5 34q-55 0 -91.5 -66t-36.5 -152v1zM386 652h39q0 -44 -20.5 -79.5t-61.5 -35.5
q-10 0 -28.5 6l-38.5 13q-1 0 -2 0.5t-2 1.5l-37.5 11.5t-29.5 5.5q-14 0 -23 -10t-11 -27l-40 1q1 52 22.5 82.5t58.5 30.5q13 0 31 -5.5t37 -12.5l1 -0.5t2 -0.5l38 -13t31 -6q14 0 23 10t11 27v1z" />
    <glyph glyph-name="uacute" unicode="&#xfa;" horiz-adv-x="469" 
d="M436 449l-64 -449h-84l10 74l-2 2q-4 -6 -9 -10.5t-10 -9.5q-25 -24 -58 -43.5t-71 -19.5q-8 0 -16 1t-17 4q-28 8 -52 36t-24 84q0 3 0.5 5.5t0.5 5.5q0 5 0.5 11t1.5 12l42 297h85l-42 -296q-1 -8 -1.5 -15.5t-0.5 -13.5q0 -31 10.5 -45.5t23.5 -18.5q4 -2 8 -2.5
t8 -0.5q25 0 57 22t78 77l41 293h85v0zM294 670h101l-113 -146h-56l68 146v0z" />
    <glyph glyph-name="ugrave" unicode="&#xf9;" horiz-adv-x="469" 
d="M436 449l-64 -449h-84l10 74l-2 2q-4 -6 -9 -10.5t-10 -9.5q-25 -24 -58 -43.5t-71 -19.5q-8 0 -16 1t-17 4q-28 8 -52 36t-24 84q0 3 0.5 5.5t0.5 5.5q0 5 0.5 11t1.5 12l42 297h85l-42 -296q-1 -8 -1.5 -15.5t-0.5 -13.5q0 -31 10.5 -45.5t23.5 -18.5q4 -2 8 -2.5
t8 -0.5q25 0 57 22t78 77l41 293h85v0zM269 670l68 -146h-56l-113 146h101v0z" />
    <glyph glyph-name="ucircumflex" unicode="&#xfb;" horiz-adv-x="469" 
d="M436 449l-64 -449h-84l10 74l-2 2q-4 -6 -9 -10.5t-10 -9.5q-25 -24 -58 -43.5t-71 -19.5q-8 0 -16 1t-17 4q-28 8 -52 36t-24 84q0 3 0.5 5.5t0.5 5.5q0 5 0.5 11t1.5 12l42 297h85l-42 -296q-1 -8 -1.5 -15.5t-0.5 -13.5q0 -31 10.5 -45.5t23.5 -18.5q4 -2 8 -2.5
t8 -0.5q25 0 57 22t78 77l41 293h85v0zM356 670l75 -148h-41l-83 99l-134 -99h-47l131 148h99v0z" />
    <glyph glyph-name="udieresis" unicode="&#xfc;" horiz-adv-x="469" 
d="M436 449l-64 -449h-84l10 74l-2 2q-4 -6 -9 -10.5t-10 -9.5q-25 -24 -58 -43.5t-71 -19.5q-8 0 -16 1t-17 4q-28 8 -52 36t-24 84q0 3 0.5 5.5t0.5 5.5q0 5 0.5 11t1.5 12l42 297h85l-42 -296q-1 -8 -1.5 -15.5t-0.5 -13.5q0 -31 10.5 -45.5t23.5 -18.5q4 -2 8 -2.5
t8 -0.5q25 0 57 22t78 77l41 293h85v0zM198 639q19 -1 32.5 -14.5t13.5 -32.5t-13.5 -32.5t-32.5 -13.5t-32.5 13.5t-13.5 32.5t13.5 32.5t32.5 13.5v1zM377 639q19 -1 32.5 -14.5t13.5 -32.5t-13.5 -32.5t-32.5 -13.5t-32.5 13.5t-13.5 32.5t13.5 32.5t32.5 13.5v1z" />
    <glyph glyph-name="dagger" unicode="&#x2020;" horiz-adv-x="479" 
d="M245 405q-2 28 -3.5 59.5t-1.5 68.5q0 59 12.5 108t50.5 49q17 0 26.5 -17t9.5 -49q0 -21 -6.5 -50t-16.5 -60q-5 -16 -11 -32l-12 -31l-10 -25t-10 -22q14 5 30.5 10t34.5 9q21 4 41 7t34 3q26 0 42 -11.5t16 -30.5q0 -16 -18 -28t-44 -12q-15 0 -32 2.5t-34 6.5
q-13 3 -25.5 6.5t-24.5 7.5q-5 1 -10 2.5t-10 3.5q0 -42 -2.5 -99.5t-6.5 -117.5q-4 -62 -9 -120t-10 -100q-9 -74 -24 -123.5t-48 -49.5q-19 0 -30.5 19t-11.5 51q0 44 15.5 126t36.5 172l10 41l10 41l22 86l20 74l-12.5 -4t-14.5 -5q-10 -3 -21.5 -6t-23.5 -5
q-17 -4 -33.5 -6.5t-29.5 -2.5q-27 0 -43.5 11.5t-16.5 30.5q0 17 19 28t47 11q19 0 49.5 -6.5t63.5 -16.5q4 -1 8 -2.5t8 -2.5v1z" />
    <glyph glyph-name="degree" horiz-adv-x="396" 
d="M197 728q56 -1 95.5 -40.5t39.5 -95.5t-39.5 -95.5t-95.5 -39.5t-95.5 39.5t-39.5 95.5t39.5 95.5t95.5 39.5v1zM197 675q-34 -1 -58 -24.5t-24 -58.5q0 -34 24 -58.5t58 -24.5q35 0 59 24.5t24 58.5q0 35 -24 58.5t-59 23.5v1z" />
    <glyph glyph-name="cent" unicode="&#xa2;" horiz-adv-x="385" 
d="M394 454l-11 -74q-2 -1 -5 -0.5t-5 1.5l-12.5 2t-13.5 1q-7 1 -14 1.5t-13 0.5l-100 -324q2 -1 4 -1.5t4 -0.5h4h4h6h6q31 3 60.5 15t54.5 32l-13 -89q-14 -10 -35 -17.5t-43 -11.5q-10 -2 -20 -2.5t-19 -0.5q-10 0 -19 1t-17 4l-56 -179h-46l58 188q-61 22 -93 71.5
t-32 125.5q0 109 77 184t193 79l53 177h49l-55 -176q4 -1 11 -2t15 -2l12.5 -2t10.5 -2v1zM177 74l96 309q-71 -16 -114.5 -66t-43.5 -120q0 -46 15.5 -75t46.5 -49v1z" />
    <glyph glyph-name="sterling" unicode="&#xa3;" horiz-adv-x="469" 
d="M506 679l-12 -84q-15 5 -27.5 7.5t-23.5 2.5q-54 0 -98 -55t-86 -176l109 1l-24 -81h-110l-68 -200h11.5t8.5 1h4h4q13 0 24.5 -1.5t22.5 -2.5l11.5 -2l11.5 -2q18 -4 37 -6.5t43 -2.5q31 0 58.5 7t54.5 20l-13 -92q-24 -12 -51 -17t-60 -5q-19 0 -39.5 2.5t-42.5 5.5
t-45.5 5.5t-49.5 2.5q-31 0 -61.5 -4t-53.5 -11h-5l105 302h-88l24 81h89q58 169 125 242t151 73h9.5t9.5 -1q10 -1 20.5 -3.5t24.5 -7.5v1z" />
    <glyph glyph-name="section" unicode="&#xa7;" horiz-adv-x="490" 
d="M461 544l-80 -29q3 4 5 8.5t3 8.5q2 6 2.5 11t0.5 12q0 29 -18.5 47t-47.5 18q-37 0 -65.5 -23t-28.5 -60q0 -25 15 -46.5t37 -42.5q13 -12 27.5 -24l29.5 -24q41 -35 75 -79.5t34 -109.5q0 -50 -38 -96t-97 -70q21 -27 32 -47.5t16 -40.5l2 -16t1 -16q0 -68 -50 -111.5
t-129 -43.5q-7 0 -14 0.5t-14 0.5q-50 6 -92 37t-42 102v1.5v1.5l77 43q-1 -8 -1.5 -15t-0.5 -14q0 -40 22 -63.5t65 -23.5q38 0 65 20.5t27 56.5q0 27 -17 51.5t-43 47.5l-27 24l-28 25q-44 37 -80 80t-36 101t41.5 103.5t107.5 59.5q-10 11 -18 21t-15 21
q-10 17 -15.5 35.5t-5.5 40.5q0 72 53 117.5t137 45.5q62 0 96.5 -33.5t34.5 -84.5q0 -7 -0.5 -14t-2.5 -15v1zM254 102q50 11 79.5 40t29.5 63q0 33 -25.5 69t-73.5 75q-56 -2 -92.5 -29.5t-36.5 -70.5q0 -23 13.5 -43.5t34.5 -40.5l23 -20.5l24 -21.5l12 -10.5l12 -11.5v1
z" />
    <glyph glyph-name="bullet" horiz-adv-x="354" 
d="M316 341q0 -52 -36.5 -88.5t-87.5 -36.5t-87.5 36.5t-36.5 87.5t36.5 87.5t87.5 36.5t87.5 -36.5t36.5 -87.5v1z" />
    <glyph glyph-name="paragraph" unicode="&#xb6;" horiz-adv-x="542" 
d="M218 -199v510q-92 4 -144.5 58.5t-52.5 143.5q0 97 60 149.5t170 52.5l309 1v-81h-71v-834h-81v834h-109v-834h-81v0z" />
    <glyph glyph-name="germandbls" unicode="&#xdf;" horiz-adv-x="500" 
d="M41 0l63 449q17 120 67.5 180.5t133.5 60.5q73 0 119.5 -45.5t46.5 -116.5q0 -51 -30.5 -91t-80.5 -52v-1q35 -15 55.5 -44.5t28.5 -61.5q4 -14 6 -28t2 -27q0 -97 -57.5 -167t-137.5 -70q-17 0 -29.5 3t-23.5 11l9 64q9 -3 17.5 -4t16.5 -1q54 0 87 47.5t33 123.5
q0 59 -28.5 93t-83.5 40l8 59q2 -1 4 -1.5t5 -0.5h4h4q53 0 84 32t31 75q0 44 -24.5 71.5t-63.5 27.5q-50 0 -77 -38.5t-40 -129.5l-64 -458h-85v0z" />
    <glyph glyph-name="registered" unicode="&#xae;" horiz-adv-x="740" 
d="M369 728q153 -1 261 -108.5t108 -260.5t-108 -260.5t-261 -107.5t-260.5 107.5t-107.5 260.5t107.5 260.5t260.5 107.5v1zM369 667q-127 -1 -217 -90.5t-90 -217.5q0 -127 90 -217.5t217 -90.5q128 0 218 90.5t90 217.5q0 128 -90 217.5t-218 89.5v1zM208 156v396h175
q57 -1 86.5 -23.5t38.5 -50.5q3 -8 4.5 -16t1.5 -15q0 -48 -31.5 -79.5t-81.5 -34.5v-1q14 -6 25.5 -15t23.5 -23q10 -12 20.5 -27.5l22.5 -34.5l48 -76h-78l-35 62q-19 33 -33 54t-27 32t-26.5 15t-31.5 4l-38 1v-168h-64v0zM272 379h92q37 -1 59.5 13.5t22.5 45.5
q0 27 -19.5 43t-51.5 16l-103 1v-119v0z" />
    <glyph glyph-name="copyright" unicode="&#xa9;" horiz-adv-x="740" 
d="M369 728q153 -1 261 -108.5t108 -260.5t-108 -260.5t-261 -107.5t-260.5 107.5t-107.5 260.5t107.5 260.5t260.5 107.5v1zM369 667q-127 -1 -217 -90.5t-90 -217.5q0 -127 90 -217.5t217 -90.5q128 0 218 90.5t90 217.5q0 128 -90 217.5t-218 89.5v1zM488 300l60 -18
q-15 -65 -63 -99.5t-119 -34.5q-87 0 -138 58t-51 158q0 92 54 146.5t143 54.5q64 0 107.5 -29.5t59.5 -85.5l-58 -13q-15 37 -43.5 55.5t-70.5 18.5q-57 0 -91 -43t-34 -114q0 -70 33.5 -109.5t92.5 -39.5q43 0 75.5 25.5t42.5 68.5v1z" />
    <glyph glyph-name="trademark" unicode="&#x2122;" horiz-adv-x="1000" 
d="M199 318v339h-129v59h325v-59h-130v-339h-66v0zM440 318v398h98l99 -318h2l96 318h96v-398h-61v334h-2l-100 -334h-60l-105 339h-2v-339h-61v0z" />
    <glyph glyph-name="acute" unicode="&#xb4;" horiz-adv-x="333" 
d="M226 670h101l-113 -146h-56l68 146v0z" />
    <glyph glyph-name="dieresis" unicode="&#xa8;" horiz-adv-x="333" 
d="M130 639q19 -1 32.5 -14.5t13.5 -32.5t-13.5 -32.5t-32.5 -13.5t-32.5 13.5t-13.5 32.5t13.5 32.5t32.5 13.5v1zM309 639q19 -1 32.5 -14.5t13.5 -32.5t-13.5 -32.5t-32.5 -13.5t-32.5 13.5t-13.5 32.5t13.5 32.5t32.5 13.5v1z" />
    <glyph glyph-name="AE" unicode="&#x2260;" 
 />
    <glyph glyph-name="Oslash" unicode="&#xc6;" horiz-adv-x="833" 
d="M801 682l-11 -81h-261l-30 -211h245l-11 -81h-245l-32 -228h356l-11 -81h-446l43 309h-152l-170 -309h-97l389 682h433v0zM440 607h-31l-124 -226h123l32 226v0z" />
    <glyph glyph-name="plusminus" unicode="&#xd8;" horiz-adv-x="656" 
d="M548 622l65 78l38 -45l-68 -81q23 -39 31.5 -81.5t8.5 -88.5q0 -184 -99 -298.5t-230 -114.5q-43 0 -83 15t-69 41l-75 -88l-38 41l75 90q-24 34 -38.5 83.5t-14.5 104.5q0 25 3 51.5t9 53.5q26 115 106 211t213 96q54 0 94.5 -18.5t71.5 -50.5v1zM521 500l-326 -388
q16 -18 41 -29t60 -11q95 0 165 101.5t70 246.5q0 25 -2 40.5t-5 25.5q-1 4 -1.5 7t-1.5 6v1zM163 161l330 395q-20 28 -49 40t-63 12q-96 0 -152.5 -77.5t-75.5 -171.5q-5 -24 -7.5 -47.5t-2.5 -46.5q0 -28 5.5 -54.5t14.5 -50.5v1z" />
    <glyph glyph-name="yen" unicode="&#x221e;" 
 />
    <glyph glyph-name="mu" unicode="&#xb1;" horiz-adv-x="584" 
d="M71 82h472v-82h-472v82v0zM266 589h82v-195h195v-82h-195v-195h-82v195h-195v82h195v195v0z" />
    <glyph glyph-name="ordfeminine" unicode="&#x2264;" 
 />
    <glyph glyph-name="ordmasculine" unicode="&#x2265;" 
 />
    <glyph glyph-name="ae" unicode="&#xa5;" horiz-adv-x="552" 
d="M541 366l-14 -66h-198l-16 -74h199l-14 -66h-198l-34 -160h-88l33 160h-198l15 66h197l15 74h-199l14 66h167l-133 350h89l116 -339h6l232 339h110l-264 -350h163v0z" />
    <glyph glyph-name="oslash" unicode="&#xb5;" horiz-adv-x="552" 
d="M135 449h85l-58 -276q-2 -11 -3 -20.5t-1 -17.5q0 -41 21.5 -63.5t58.5 -22.5q55 0 85 33t42 91l57 276h85l-93 -449h-77l4 32l-11 -9.5t-8 -6.5l-2 -2t-2 -1q-3 -2 -5.5 -3.5t-5.5 -3.5t-7 -4t-10 -4q-9 -5 -23.5 -8.5t-35.5 -3.5q-31 0 -55 14t-42 39l-43 -212h-84
l128 622v0z" />
    <glyph glyph-name="questiondown" unicode="&#x2202;" 
 />
    <glyph glyph-name="exclamdown" unicode="&#x3a3;" 
 />
    <glyph glyph-name="florin" unicode="&#x220f;" 
 />
    <glyph glyph-name="guillemotleft" unicode="&#x3c0;" 
 />
    <glyph glyph-name="guillemotright" unicode="&#x222b;" 
 />
    <glyph glyph-name="ellipsis" unicode="&#xaa;" horiz-adv-x="313" 
d="M327 682l-42 -270h-66l3 23q-10 -9 -19.5 -14t-18.5 -8q-8 -3 -15.5 -4t-16.5 -1q-43 0 -71.5 30.5t-28.5 75.5q0 80 55.5 128t145.5 48q7 0 14 -0.5t15 -1.5q12 -1 24 -3t21 -4v1zM231 493l23 149q-55 -1 -94.5 -29.5t-39.5 -90.5q0 -30 14 -49.5t36 -19.5h4t4 1
q12 2 25 11.5t28 26.5v1z" />
    <glyph glyph-name="Agrave" unicode="&#xba;" horiz-adv-x="302" 
d="M316 571q0 -74 -40 -121t-102 -47q-53 0 -83.5 32t-30.5 90q0 71 41.5 118t102.5 47q52 0 82 -32.5t30 -87.5v1zM249 574q0 37 -12.5 53.5t-32.5 16.5q-33 0 -55 -35.5t-22 -97.5q0 -26 13.5 -44t32.5 -18q31 0 53.5 36.5t22.5 87.5v1z" />
    <glyph glyph-name="Atilde" unicode="&#x3a9;" 
 />
    <glyph glyph-name="Otilde" unicode="&#xe6;" horiz-adv-x="646" 
d="M588 119l-12 -87q-15 -10 -29.5 -17.5t-28.5 -13.5q-22 -7 -43.5 -11t-44.5 -4q-50 0 -89.5 21.5t-62.5 62.5q-9 -10 -17.5 -18.5t-17.5 -15.5q-32 -27 -62.5 -38.5t-53.5 -11.5q-52 0 -83.5 28.5t-31.5 77.5q0 54 56.5 98.5t192.5 69.5q5 15 7 29t2 26q0 34 -16.5 53.5
t-45.5 19.5q-21 0 -47 -11t-53 -31q-12 -8 -24 -18.5t-24 -22.5l14 97q21 16 39 27.5t36 18.5t36 10.5t39 3.5q34 0 59 -15.5t41 -45.5q22 24 53.5 40t65.5 20q5 0 10 0.5t10 0.5q68 0 109.5 -58.5t40.5 -139.5q0 -12 -1 -24.5t-3 -25.5l-267 1q-3 -14 -4.5 -26.5
t-1.5 -23.5q0 -57 32 -83.5t74 -26.5q22 0 49 9t55 26q11 6 21.5 13t20.5 15v1zM241 106l13 93q-71 -14 -113 -41.5t-42 -61.5q0 -18 13 -29.5t32 -11.5h6.5t6.5 1q20 3 40.5 15t43.5 34v1zM350 274h182v3v4q0 9 -1.5 21t-5.5 25q-7 24 -25 44.5t-52 20.5t-63.5 -28.5
t-34.5 -90.5v1z" />
    <glyph glyph-name="OE" unicode="&#xf8;" horiz-adv-x="448" 
d="M430 429l-39 -46q13 -24 20 -53.5t7 -63.5q0 -126 -62 -203t-151 -77q-36 0 -65.5 11t-50.5 33l-41 -46l-30 33l44 51q-13 23 -19.5 53t-6.5 65q0 118 62 197t153 79q35 0 63.5 -11.5t49.5 -33.5l37 44l29 -32v0zM328 309l-184 -214q11 -18 26 -27.5t32 -9.5q53 0 91 60
t38 153q0 10 -0.5 19.5t-2.5 17.5v1zM127 143l184 214q-10 18 -25 28t-35 10q-55 0 -91.5 -66t-36.5 -152q0 -9 1 -18t3 -17v1z" />
    <glyph glyph-name="oe" unicode="&#xbf;" horiz-adv-x="354" 
d="M271 -93l-14 -99q-20 -13 -37.5 -21t-34.5 -12q-10 -3 -19.5 -4t-20.5 -1q-66 0 -105.5 42t-39.5 112q0 46 20 79.5t48 65.5q9 9 17 18t17 18q33 37 62 81t38 108l55 1q0 -80 -26.5 -135t-58.5 -95l-43 -52t-32 -45q-5 -11 -8 -21t-3 -21q0 -33 20 -54t54 -21q19 0 43 10
t48 29l10 8t10 9v0zM241 359q-24 -1 -41 16t-17 41t17 41t41 17t41 -17t17 -41t-17 -41t-41 -17v1z" />
    <glyph glyph-name="endash" unicode="&#xa1;" horiz-adv-x="250" 
d="M157 295q-11 -113 -15.5 -197.5l-7.5 -143.5q-5 -101 -16.5 -142.5t-54.5 -41.5q-19 0 -29.5 15.5t-10.5 43.5q0 35 26.5 148l58.5 259l6 28.5l6 29.5l37 1v0zM151 359q-24 -1 -41 16t-17 41t17 41t41 17t41 -17t17 -41t-17 -41t-41 -17v1z" />
    <glyph glyph-name="emdash" unicode="&#xac;" 
 />
    <glyph glyph-name="quotedblleft" unicode="&#x221a;" 
 />
    <glyph glyph-name="quotedblright" unicode="&#x192;" horiz-adv-x="552" 
d="M23 -198l17 76q26 -6 43.5 -8.5t31.5 -2.5q25 0 39 14t19 45l90 524h-98l11 68h99l14 85q11 66 46 95.5t94 29.5q21 0 44.5 -4.5t56.5 -14.5l-17 -74q-23 5 -36.5 7.5t-25.5 3.5h-8h-8q-30 0 -41.5 -18.5t-19.5 -59.5l-9 -50h99l-12 -68h-100l-93 -533
q-12 -70 -41.5 -98.5t-88.5 -28.5q-19 0 -44.5 2.5t-53.5 7.5q-2 1 -4 1.5t-4 0.5v0z" />
    <glyph glyph-name="quoteleft" unicode="&#x2248;" 
 />
    <glyph glyph-name="quoteright" unicode="&#x2206;" 
 />
    <glyph glyph-name="ydieresis" unicode="&#xab;" horiz-adv-x="438" 
d="M252 449l-173 -235l84 -214h-68l-88 224l168 225h77v0zM446 449l-173 -235l84 -214h-68l-88 224l168 225h77v0z" />
    <glyph glyph-name="Ydieresis" unicode="&#xbb;" horiz-adv-x="438" 
d="M-26 0l173 235l-84 214h68l88 -224l-168 -225h-77v0zM170 0l173 235l-84 214h68l88 -224l-168 -225h-77v0z" />
    <glyph glyph-name="fraction" unicode="&#x2026;" horiz-adv-x="1000" 
d="M136 109q25 -1 42.5 -18t17.5 -42t-17.5 -41.5t-42.5 -16.5t-42 16.5t-17 41.5t17 42t42 17v1zM470 111q25 -1 42.5 -18.5t17.5 -42.5t-17.5 -42t-42.5 -17t-42.5 17t-17.5 42t17.5 42.5t42.5 17.5v1zM804 111q25 -1 42 -18.5t17 -42.5t-17 -42t-42 -17t-42.5 17
t-17.5 42t17.5 42.5t42.5 17.5v1z" />
    <glyph glyph-name="currency" unicode="&#xc0;" horiz-adv-x="521" 
d="M352 686l133 -686h-84l-41 214h-214l-90 -214h-91l301 686h86v0zM292 566l-116 -280h170l-52 280h-2v0zM313 888l68 -146h-56l-113 146h101v0z" />
    <glyph glyph-name="guilsinglleft" unicode="&#xc3;" horiz-adv-x="521" 
d="M352 686l133 -686h-84l-41 214h-214l-90 -214h-91l301 686h86v0zM292 566l-116 -280h170l-52 280h-2v0zM440 870h39q0 -44 -20.5 -79.5t-61.5 -35.5q-10 0 -28.5 6l-38.5 13q-1 0 -2 0.5t-2 1.5l-37.5 11.5t-29.5 5.5q-14 0 -23 -10t-11 -27l-40 1q1 52 22.5 82.5
t58.5 30.5q13 0 31 -5.5t37 -12.5l1 -0.5t2 -0.5l38 -13t31 -6q14 0 23 10t11 27v1z" />
    <glyph glyph-name="guilsinglright" unicode="&#xd5;" horiz-adv-x="656" 
d="M623 405q0 -185 -99 -299.5t-230 -114.5q-107 0 -175 80t-68 207q0 25 3 51.5t9 53.5q26 115 106 211t213 96q109 0 175 -79t66 -207v1zM531 421q0 89 -41 138t-109 49q-96 0 -152.5 -77.5t-75.5 -171.5q-5 -24 -7.5 -47.5t-2.5 -46.5q0 -90 41.5 -141.5t111.5 -51.5
q95 0 165 101.5t70 246.5v1zM519 870h39q0 -44 -20.5 -79.5t-61.5 -35.5q-10 0 -28.5 6l-38.5 13q-1 0 -2 0.5t-2 1.5l-37.5 11.5t-29.5 5.5q-14 0 -23 -10t-11 -27l-40 1q1 52 22.5 82.5t58.5 30.5q13 0 31 -5.5t37 -12.5l1 -0.5t2 -0.5l38 -13t31 -6q14 0 23 10t11 27v1z
" />
    <glyph glyph-name="fi" unicode="&#x152;" horiz-adv-x="969" 
d="M932 682l-12 -81h-275l-29 -213h258l-12 -81h-258l-31 -226h367l-11 -81h-452q-6 0 -18.5 -0.5t-29.5 -1.5q-12 -1 -25.5 -1.5t-27.5 -0.5h-8.5h-9.5q-163 0 -230 83.5t-75 184.5q-1 10 -1.5 19.5t-0.5 18.5q0 31 9 73t29 86q37 82 118 151t219 69l506 1v0zM556 601h-56
q-16 -1 -27.5 -1t-21.5 1h-7h-6h-13h-13q-121 0 -192.5 -83.5t-71.5 -224.5q0 -108 51.5 -160.5t136.5 -52.5l147 1l73 520v0z" />
    <glyph glyph-name="fl" unicode="&#x153;" horiz-adv-x="719" 
d="M677 235h-277q-2 -14 -3.5 -26.5t-1.5 -23.5q0 -57 30.5 -93.5t91.5 -36.5q12 0 24 2t24 6q24 8 48 23t45 36l-14 -93q-14 -11 -28.5 -18t-28.5 -12q-18 -6 -37 -9.5t-39 -3.5q-54 0 -96 23t-73 69q-23 -32 -48.5 -53t-51.5 -30q-12 -4 -23.5 -6.5t-22.5 -2.5
q-79 0 -124 53t-45 147q0 118 62 197t153 79q44 0 77.5 -20.5t55.5 -59.5q32 41 68 60.5t78 19.5q77 0 117 -51t40 -146v-15t-1 -16v1zM312 284q0 49 -20 79t-50 32q-55 0 -91.5 -66t-36.5 -152q0 -54 22.5 -86.5t56.5 -32.5h3.5h2.5q49 0 81 65t32 160v1zM408 294h188
q-1 47 -22.5 74t-60.5 27q-38 0 -66 -27t-39 -75v1z" />
    <glyph glyph-name="daggerdbl" horiz-adv-x="500" 
d="M509 285v-64h-518v64h518v0z" />
    <glyph glyph-name="periodcentered" unicode="&#x2014;" horiz-adv-x="1000" 
d="M1009 285v-64h-1018v64h1018v0z" />
    <glyph glyph-name="quotedblbase" unicode="&#x201c;" horiz-adv-x="406" 
d="M224 690l-6 -44q-34 -12 -50 -33t-16 -54q19 -8 29 -21t10 -30q0 -26 -17.5 -42.5t-45.5 -16.5q-27 0 -45 22.5t-18 56.5q0 57 44 101t115 60v1zM439 690l-6 -44q-34 -12 -50 -33t-16 -54q19 -8 29 -21t10 -30q0 -26 -17.5 -42.5t-45.5 -16.5q-27 0 -45 22.5t-18 56.5
q0 57 44 101t115 60v1z" />
    <glyph glyph-name="perthousand" unicode="&#x201d;" horiz-adv-x="406" 
d="M62 451l6 44q34 10 50 31t16 54q-19 8 -29 21t-10 30q0 26 17.5 42.5t45.5 16.5q27 0 45 -22.5t18 -56.5q0 -57 -44 -101t-115 -60v1zM277 451l6 44q34 10 50 31t16 54q-19 8 -29 21t-10 30q0 26 17.5 42.5t45.5 16.5q27 0 45 -22.5t18 -56.5q0 -57 -44 -101t-115 -60v1z
" />
    <glyph glyph-name="Acircumflex" unicode="&#x2018;" horiz-adv-x="198" 
d="M236 690l-6 -44q-34 -12 -50 -33t-16 -54q19 -8 29 -21t10 -30q0 -26 -17.5 -42.5t-45.5 -16.5q-27 0 -45 22.5t-18 56.5q0 57 44 101t115 60v1z" />
    <glyph glyph-name="Ecircumflex" unicode="&#x2019;" horiz-adv-x="198" 
d="M60 451l6 44q34 10 50 31t16 54q-19 8 -29 21t-10 30q0 26 17.5 42.5t45.5 16.5q27 0 45 -22.5t18 -56.5q0 -57 -44 -101t-115 -60v1z" />
    <glyph glyph-name="Aacute" unicode="&#xf7;" 
 />
    <glyph glyph-name="Edieresis" unicode="&#x25ca;" 
 />
    <glyph glyph-name="Egrave" unicode="&#xff;" horiz-adv-x="375" 
d="M400 449l-322 -679h-90l122 257l-87 422h85l60 -309h2l141 309h89v0zM151 639q19 -1 32.5 -14.5t13.5 -32.5t-13.5 -32.5t-32.5 -13.5t-32.5 13.5t-13.5 32.5t13.5 32.5t32.5 13.5v1zM330 639q19 -1 32.5 -14.5t13.5 -32.5t-13.5 -32.5t-32.5 -13.5t-32.5 13.5
t-13.5 32.5t13.5 32.5t32.5 13.5v1z" />
    <glyph glyph-name="Iacute" unicode="&#x178;" horiz-adv-x="490" 
d="M557 682l-239 -342l-48 -340h-90l48 340l-160 342h95l116 -250l174 250h104v0zM238 857q19 -1 32.5 -14.5t13.5 -32.5t-13.5 -32.5t-32.5 -13.5t-32.5 13.5t-13.5 32.5t13.5 32.5t32.5 13.5v1zM417 857q19 -1 32.5 -14.5t13.5 -32.5t-13.5 -32.5t-32.5 -13.5t-32.5 13.5
t-13.5 32.5t13.5 32.5t32.5 13.5v1z" />
    <glyph glyph-name="Icircumflex" unicode="&#x2215;" horiz-adv-x="208" 
d="M410 691l-542 -718h-69l543 718h68v0z" />
    <glyph glyph-name="Idieresis" unicode="&#xa4;" horiz-adv-x="552" 
d="M463 226l67 -67l-57 -57l-67 67q-22 -16 -51.5 -26t-63.5 -10q-36 0 -65 10.5t-50 24.5l-67 -66l-57 57l67 67q-14 19 -24.5 49.5t-10.5 64.5q0 35 11 65t24 50l-67 68l57 57l67 -67q19 13 50 23.5t65 10.5q33 0 62 -9.5t53 -25.5l67 68l57 -57l-67 -67q9 -13 15 -27
t11 -29q4 -16 6.5 -32t2.5 -28q0 -8 -1 -16.5l-2 -16.5q-4 -23 -12.5 -45t-19.5 -37v1zM291 468q-52 -1 -89.5 -38t-37.5 -90q0 -52 37.5 -89.5t89.5 -37.5q53 0 90 37.5t37 89.5q0 53 -37 90t-90 37v1z" />
    <glyph glyph-name="Igrave" unicode="&#x2039;" horiz-adv-x="229" 
d="M245 449l-173 -235l84 -214h-68l-88 224l168 225h77v0z" />
    <glyph glyph-name="Oacute" unicode="&#x203a;" horiz-adv-x="229" 
d="M-36 0l173 235l-84 214h68l88 -224l-168 -225h-77v0z" />
    <glyph glyph-name="Ocircumflex" unicode="&#xf001;" horiz-adv-x="479" 
d="M299 449l-11 -75h-95l-84 -563h-83l83 563h-66l11 75h65q15 112 59.5 176.5t144.5 64.5q68 0 107 -36.5t38 -90.5l-81 1q-4 24 -22.5 38.5t-44.5 14.5q-62 0 -82.5 -41.5t-33.5 -118.5q0 -2 -0.5 -4.5t-0.5 -4.5l96 1v0zM454 449l-66 -449h-85l66 449h85v0z" />
    <glyph glyph-name="Ograve" unicode="&#xf002;" horiz-adv-x="479" 
d="M302 449l-14 -75h-94l-85 -563h-83l83 563h-65l11 75h64q17 127 64 184t134 57q8 0 14 -0.5t12 -1.5q5 -1 10.5 -2.5t12.5 -4.5l-10 -68q-5 1 -12 2t-15 2h-5h-6q-61 0 -84.5 -52t-29.5 -117l98 1v0zM488 682l-101 -682h-85l101 682h85v0z" />
    <glyph glyph-name="Uacute" unicode="&#x2021;" horiz-adv-x="458" 
d="M267 405q-3 -32 -4 -54t-1 -38q1 -16 1.5 -28t0.5 -22v-4v-4q0 -16 -2 -29.5t-5 -26.5q-7 -27 -18.5 -58.5t-24.5 -87.5q41 14 68.5 21t52.5 8h4h4q28 0 42 -11t14 -31q0 -19 -17 -29.5t-47 -10.5q-17 0 -31 1.5t-27 5.5q-14 4 -29 10l-34 13q0 -7 0.5 -14t0.5 -13
q0 -3 0.5 -6t0.5 -7q1 -15 1.5 -34t0.5 -48v-11.5v-11.5q-2 -43 -13.5 -79t-43.5 -36q-20 0 -31 14t-11 40q0 33 15.5 79.5t53.5 126.5q-25 -10 -44.5 -17t-37.5 -10q-9 -2 -18.5 -2.5t-19.5 -0.5q-37 0 -54.5 9.5t-17.5 28.5t18.5 31.5t49.5 12.5q23 0 56 -7.5t68 -20.5
q2 22 2.5 41t0.5 35q0 13 -0.5 24.5t-0.5 21.5q0 11 -0.5 21t-0.5 19q0 7 0.5 13.5t2.5 12.5q4 22 14.5 47.5t22.5 65.5l6 23t6 26q-43 -14 -68.5 -19t-47.5 -6h-4h-4q-30 0 -46.5 9.5t-16.5 28.5q0 20 17.5 32.5t45.5 12.5q25 0 55 -8t69 -25q-1 13 -2 31t-1 36
q-1 17 -1 32.5v28.5q0 68 14 100.5t44 32.5q19 0 29.5 -14.5t10.5 -39.5q0 -43 -20 -94.5t-48 -110.5l2 -1q15 7 31.5 13t32.5 10q17 5 33 7t31 2q29 0 45 -10.5t16 -30.5q0 -19 -18 -30.5t-49 -11.5q-28 0 -58 6t-66 19v1z" />
    <glyph glyph-name="Ucircumflex" unicode="&#x2219;" horiz-adv-x="260" 
d="M151 406q25 -1 42.5 -18.5t17.5 -42.5t-17.5 -43t-42.5 -18t-43 18t-18 43t18 42.5t43 17.5v1z" />
    <glyph glyph-name="Ugrave" unicode="&#x201a;" 
 />
    <glyph glyph-name="dotlessi" unicode="&#x201e;" horiz-adv-x="406" 
d="M-24 -144l6 44q34 11 50 32t16 54q-19 8 -29 20.5t-10 29.5q0 26 17.5 42.5t45.5 16.5q27 0 45 -22.5t18 -56.5q0 -56 -44 -100t-114 -60h-1zM191 -144l6 44q34 11 50 32t16 54q-19 8 -29 20.5t-10 29.5q0 26 17.5 42.5t45.5 16.5q27 0 45 -22.5t18 -56.5q0 -56 -44 -100
t-115 -60v0z" />
    <glyph glyph-name="circumflex" unicode="&#x2030;" horiz-adv-x="1010" 
d="M601 691l-448 -700h-76l449 700h75v0zM650 144q0 -62 -45 -107t-107 -45q-64 0 -108 45t-44 106q0 65 44 108.5t108 43.5q62 0 107 -43.5t45 -108.5v1zM577 144q0 33 -23.5 55.5t-55.5 22.5q-33 0 -56 -22t-23 -57q0 -31 24 -55t55 -24q34 0 56.5 24t22.5 55v1zM1006 144
q0 -62 -45 -107t-107 -45q-64 0 -108 45t-44 106q0 65 44 108.5t108 43.5q62 0 107 -43.5t45 -108.5v1zM933 144q0 33 -23.5 55.5t-55.5 22.5q-33 0 -56 -22t-23 -57q0 -31 24 -55t55 -24q34 0 56.5 24t22.5 55v1zM332 539q0 -62 -45 -107.5t-107 -45.5q-64 0 -108 45.5
t-44 106.5q0 65 44 108.5t108 43.5q62 0 107 -43.5t45 -108.5v1zM259 539q0 33 -23.5 55.5t-55.5 22.5q-33 0 -56 -22t-23 -57q0 -31 24 -55t55 -24q34 0 56.5 24t22.5 55v1z" />
    <glyph glyph-name="tilde" unicode="&#xc2;" horiz-adv-x="521" 
d="M352 686l133 -686h-84l-41 214h-214l-90 -214h-91l301 686h86v0zM292 566l-116 -280h170l-52 280h-2v0zM400 888l75 -148h-41l-83 99l-134 -99h-47l131 148h99v0z" />
    <glyph glyph-name="macron" unicode="&#xca;" horiz-adv-x="510" 
d="M498 682l-11 -81h-273l-30 -214h241l-11 -81h-242l-33 -225h359l-12 -81h-448l99 682h361v0zM406 888l75 -148h-41l-83 99l-134 -99h-47l131 148h99v0z" />
    <glyph glyph-name="breve" unicode="&#xc1;" horiz-adv-x="521" 
d="M352 686l133 -686h-84l-41 214h-214l-90 -214h-91l301 686h86v0zM292 566l-116 -280h170l-52 280h-2v0zM338 888h101l-113 -146h-56l68 146v0z" />
    <glyph glyph-name="dotaccent" unicode="&#xcb;" horiz-adv-x="510" 
d="M498 682l-11 -81h-273l-30 -214h241l-11 -81h-242l-33 -225h359l-12 -81h-448l99 682h361v0zM248 857q19 -1 32.5 -14.5t13.5 -32.5t-13.5 -32.5t-32.5 -13.5t-32.5 13.5t-13.5 32.5t13.5 32.5t32.5 13.5v1zM427 857q19 -1 32.5 -14.5t13.5 -32.5t-13.5 -32.5
t-32.5 -13.5t-32.5 13.5t-13.5 32.5t13.5 32.5t32.5 13.5v1z" />
    <glyph glyph-name="ring" unicode="&#xc8;" horiz-adv-x="510" 
d="M498 682l-11 -81h-273l-30 -214h241l-11 -81h-242l-33 -225h359l-12 -81h-448l99 682h361v0zM319 888l68 -146h-56l-113 146h101v0z" />
    <glyph glyph-name="cedilla" unicode="&#xcd;" horiz-adv-x="240" 
d="M229 682l-96 -682h-94l96 682h94v0zM209 888h101l-113 -146h-56l68 146v0z" />
    <glyph glyph-name="hungarumlaut" unicode="&#xce;" horiz-adv-x="240" 
d="M229 682l-96 -682h-94l96 682h94v0zM271 888l75 -148h-41l-83 99l-134 -99h-47l131 148h99v0z" />
    <glyph glyph-name="ogonek" unicode="&#xcf;" horiz-adv-x="240" 
d="M229 682l-96 -682h-94l96 682h94v0zM113 857q19 -1 32.5 -14.5t13.5 -32.5t-13.5 -32.5t-32.5 -13.5t-32.5 13.5t-13.5 32.5t13.5 32.5t32.5 13.5v1zM292 857q19 -1 32.5 -14.5t13.5 -32.5t-13.5 -32.5t-32.5 -13.5t-32.5 13.5t-13.5 32.5t13.5 32.5t32.5 13.5v1z" />
    <glyph glyph-name="caron" unicode="&#xcc;" horiz-adv-x="240" 
d="M229 682l-96 -682h-94l96 682h94v0zM184 888l68 -146h-56l-113 146h101v0z" />
    <glyph glyph-name="Lslash" unicode="&#xd3;" horiz-adv-x="656" 
d="M623 405q0 -185 -99 -299.5t-230 -114.5q-107 0 -175 80t-68 207q0 25 3 51.5t9 53.5q26 115 106 211t213 96q109 0 175 -79t66 -207v1zM531 421q0 89 -41 138t-109 49q-96 0 -152.5 -77.5t-75.5 -171.5q-5 -24 -7.5 -47.5t-2.5 -46.5q0 -90 41.5 -141.5t111.5 -51.5
q95 0 165 101.5t70 246.5v1zM417 888h101l-113 -146h-56l68 146v0z" />
    <glyph glyph-name="lslash" unicode="&#xd4;" horiz-adv-x="656" 
d="M623 405q0 -185 -99 -299.5t-230 -114.5q-107 0 -175 80t-68 207q0 25 3 51.5t9 53.5q26 115 106 211t213 96q109 0 175 -79t66 -207v1zM531 421q0 89 -41 138t-109 49q-96 0 -152.5 -77.5t-75.5 -171.5q-5 -24 -7.5 -47.5t-2.5 -46.5q0 -90 41.5 -141.5t111.5 -51.5
q95 0 165 101.5t70 246.5v1zM479 888l75 -148h-41l-83 99l-134 -99h-47l131 148h99v0z" />
    <glyph glyph-name="Scaron" unicode="&#xf000;" 
 />
    <glyph glyph-name="scaron" unicode="&#xd2;" 
 />
    <glyph glyph-name="Eth" unicode="&#xda;" horiz-adv-x="635" 
d="M637 682l-59 -421q-19 -140 -94.5 -205t-189.5 -65q-106 0 -170 57t-64 154q0 10 1 20l2 20l62 440h90l-63 -446q-1 -8 -1.5 -15t-0.5 -14q0 -67 44 -101t105 -34h4.5h4.5q34 2 66 14.5t56 36.5q26 26 38 65.5t20 100.5l55 393h94v0zM406 888h101l-113 -146h-56l68 146v0
z" />
    <glyph glyph-name="eth" unicode="&#xdb;" horiz-adv-x="635" 
d="M637 682l-59 -421q-19 -140 -94.5 -205t-189.5 -65q-106 0 -170 57t-64 154q0 10 1 20l2 20l62 440h90l-63 -446q-1 -8 -1.5 -15t-0.5 -14q0 -67 44 -101t105 -34h4.5h4.5q34 2 66 14.5t56 36.5q26 26 38 65.5t20 100.5l55 393h94v0zM468 888l75 -148h-41l-83 99
l-134 -99h-47l131 148h99v0z" />
    <glyph glyph-name="Thorn" unicode="&#xd9;" horiz-adv-x="635" 
d="M637 682l-59 -421q-19 -140 -94.5 -205t-189.5 -65q-106 0 -170 57t-64 154q0 10 1 20l2 20l62 440h90l-63 -446q-1 -8 -1.5 -15t-0.5 -14q0 -67 44 -101t105 -34h4.5h4.5q34 2 66 14.5t56 36.5q26 26 38 65.5t20 100.5l55 393h94v0zM381 888l68 -146h-56l-113 146h101v0
z" />
    <glyph glyph-name="thorn" unicode="&#x131;" horiz-adv-x="188" 
d="M171 449l-63 -449h-85l63 449h85v0z" />
    <glyph glyph-name="onehalf" unicode="&#x2dc;" horiz-adv-x="333" 
d="M288 670l75 -148h-41l-83 99l-134 -99h-47l131 148h99v0z" />
    <glyph glyph-name="arrowright" unicode="&#x2c6;" horiz-adv-x="333" 
d="M328 652h39q0 -44 -20.5 -79.5t-61.5 -35.5q-10 0 -28.5 6l-38.5 13q-1 0 -2 0.5t-2 1.5l-37.5 11.5t-29.5 5.5q-14 0 -23 -10t-11 -27l-40 1q1 52 22.5 82.5t58.5 30.5q13 0 31 -5.5t37 -12.5l1 -0.5t2 -0.5l38 -13t31 -6q14 0 23 10t11 27v1z" />
    <glyph glyph-name="house" unicode="&#x2c9;" horiz-adv-x="333" 
d="M378 635l-9 -64h-322l9 64h322v0z" />
    <glyph glyph-name="endash" unicode="&#x2d8;" horiz-adv-x="333" 
d="M308 659h49q-18 -62 -54.5 -95.5t-86.5 -33.5q-52 0 -82.5 35.5t-29.5 84.5v2v2v2v2l47 1q1 -29 20 -47t49 -18q26 0 48.5 16.5t39.5 47.5v1z" />
    <glyph glyph-name="sfthyphen" unicode="&#x2d9;" horiz-adv-x="333" 
d="M220 639q19 -1 32.5 -14.5t13.5 -32.5t-13.5 -32.5t-32.5 -13.5t-32.5 13.5t-13.5 32.5t13.5 32.5t32.5 13.5v1z" />
    <glyph glyph-name="filledbox" unicode="&#x2da;" horiz-adv-x="333" 
d="M219 691q39 -1 66.5 -28.5t27.5 -66.5t-27.5 -66.5t-66.5 -27.5t-66.5 27.5t-27.5 66.5t27.5 66.5t66.5 27.5v1zM219 650q-22 -1 -38.5 -17t-16.5 -39q0 -22 16.5 -38.5t38.5 -16.5q23 0 39 16.5t16 38.5q0 23 -16 39t-39 16v1z" />
    <glyph glyph-name="bullet" unicode="&#xb8;" horiz-adv-x="333" 
d="M180 7l-9 -24q23 -11 34.5 -27t11.5 -41q0 -37 -30.5 -61.5t-75.5 -24.5h-10t-10 1q-13 1 -25 2.5t-23 3.5l12 46q15 -4 24.5 -5.5t17.5 -1.5q22 0 34.5 10.5t12.5 27.5q0 11 -6.5 19t-20.5 16l28 59h35v0z" />
    <glyph glyph-name="uni02BA" unicode="&#x2ba;" horiz-adv-x="333" 
d="M153 670h101l-113 -146h-56l68 146v0zM312 670h101l-113 -146h-56l68 146v0z" />
    <glyph glyph-name="glyph223" unicode="&#x2db;" horiz-adv-x="333" 
d="M220 -111l-10 -68q-11 -3 -19 -4.5t-15 -2.5q-6 -1 -12.5 -1h-15.5q-46 0 -78 27t-32 66q0 21 9 46t28 54l77 1q-15 -26 -21 -39.5t-7 -25.5q-1 -2 -1 -4.5v-4.5q0 -21 17 -35.5t42 -14.5h6h6q5 1 10.5 2.5t15.5 3.5v0z" />
    <glyph glyph-name="glyph224" unicode="&#x2c7;" horiz-adv-x="333" 
d="M153 522l-75 148h41l83 -99l134 99h47l-131 -148h-99v0z" />
    <glyph glyph-name="glyph225" unicode="&#x141;" horiz-adv-x="417" 
d="M306 449l-135 -112l-39 -261h280l-11 -76h-366l37 265l-72 -60l13 89l72 61l46 327h90l-37 -255l135 113l-13 -91v0z" />
    <glyph glyph-name="glyph226" unicode="&#x142;" horiz-adv-x="188" 
d="M230 388l-75 -56l-47 -332h-85l38 269l-73 -54l7 61l75 55l49 351h85l-40 -288l75 56l-9 -62v0z" />
    <glyph glyph-name="glyph227" unicode="&#x160;" horiz-adv-x="458" 
d="M439 664l-13 -93q-16 9 -30.5 16t-29.5 11t-29.5 6t-30.5 2q-55 0 -87.5 -28t-32.5 -75q0 -27 16.5 -50t41.5 -45q13 -11 28 -22.5l30 -23.5q43 -36 79 -81t36 -111q0 -6 -0.5 -12t-1.5 -12q-8 -59 -58 -107t-142 -48q-30 0 -68 8.5t-77 28.5q-5 3 -10 5.5t-10 5.5
l14 101q54 -38 91.5 -52t68.5 -14q8 0 18.5 2t21.5 6q23 9 42 28t19 52t-20.5 59.5t-49.5 52.5l-22.5 18.5l-22.5 18.5q-44 36 -80 81t-36 112q0 84 68 135t152 51q17 0 44 -4t56 -13q6 -3 12.5 -5t12.5 -5v1zM245 740l-75 148h41l83 -99l134 99h47l-131 -148h-99v0z" />
    <glyph glyph-name="glyph228" unicode="&#x161;" horiz-adv-x="354" 
d="M323 416v-89q-38 28 -72.5 43t-62.5 15q-26 0 -43.5 -13.5t-17.5 -33.5q0 -13 8.5 -24t21.5 -22q13 -10 28.5 -20l31.5 -21q33 -23 61 -54t28 -78q0 -61 -40 -97t-99 -36q-17 0 -32.5 2t-30.5 7q-21 5 -43 17t-50 32l15 83q44 -36 77.5 -52t60.5 -16q26 0 42 14t16 36
q0 19 -13 34.5t-33 30.5l-20.5 14.5t-21.5 14.5q-33 24 -60.5 54t-27.5 76q0 58 38.5 93.5t102.5 35.5q35 0 70 -12.5t66 -34.5v1zM164 522l-75 148h41l83 -99l134 99h47l-131 -148h-99v0z" />
    <glyph glyph-name="Zcaron" unicode="&#x17d;" 
 />
    <glyph glyph-name="zcaron" unicode="&#x17e;" 
 />
    <glyph glyph-name="brokenbar" unicode="&#xa6;" 
 />
    <glyph glyph-name="glyph232" unicode="&#xd0;" horiz-adv-x="656" 
d="M136 682h81q101 -1 182.5 -29.5t133.5 -80.5q43 -43 63.5 -99.5t20.5 -133.5q0 -134 -81.5 -236.5t-270.5 -102.5h-226l43 301h-79l12 81h78l43 300v0zM216 601l-31 -219h156l-11 -81h-156l-31 -220h82q95 -1 143 14t82 49q29 29 49.5 81t20.5 117q0 134 -81 196t-223 62
v1z" />
    <glyph glyph-name="glyph233" unicode="&#xf0;" horiz-adv-x="448" 
d="M437 652l-89 -47q21 -31 36 -66t26 -71q10 -38 15.5 -75t5.5 -69q0 -140 -64 -239t-168 -99q-76 0 -119.5 53.5t-43.5 147.5q0 115 62 195t151 80q10 0 20.5 -1t21.5 -5q10 -3 20.5 -9t20.5 -15l2 3q-3 16 -9.5 35t-15.5 39q-7 14 -15.5 29t-17.5 28l-91 -48l-25 40
l86 45q-8 9 -17 17t-18 14l52 57q17 -11 31 -23.5t26 -26.5l93 50l24 -39v0zM343 269q0 67 -24.5 96.5t-68.5 29.5q-55 0 -91.5 -68t-36.5 -153q0 -47 22.5 -84.5t56.5 -37.5q49 0 87.5 53t50.5 117q2 11 3 23t1 23v1z" />
    <glyph glyph-name="Yacute" unicode="&#xdd;" 
 />
    <glyph glyph-name="yacute" unicode="&#xfd;" 
 />
    <glyph glyph-name="glyph236" unicode="&#xde;" horiz-adv-x="448" 
d="M123 682h93l-20 -144h24q7 -1 14 -1t13 -1q73 -5 133.5 -46t60.5 -146q0 -16 -3.5 -34.5t-10.5 -37.5q-19 -48 -67 -88.5t-137 -40.5l-82 1l-20 -144h-94l96 682v0zM185 457l-32 -232h66q62 -1 92.5 31t36.5 70q1 5 1.5 10.5t0.5 10.5q0 41 -28.5 75t-96.5 34l-40 1v0z
" />
    <glyph glyph-name="glyph237" unicode="&#xfe;" horiz-adv-x="490" 
d="M13 -230l128 912h85l-33 -233q10 3 19 6t18 4q9 2 19 2.5t20 0.5q80 0 133 -59.5t53 -149.5q0 -18 -2.5 -37.5t-8.5 -38.5q-20 -72 -82.5 -131.5t-177.5 -59.5h-56l-30 -216h-85v0zM184 386l-46 -328h41q83 -1 128 47t57 106q2 10 3 21t1 21q0 76 -39.5 110.5t-88.5 34.5
q-8 0 -14 -0.5t-11 -1.5q-7 -1 -14 -4l-17 -7v1z" />
    <glyph glyph-name="minus" unicode="&#x2212;" 
 />
    <glyph glyph-name="multiply" unicode="&#xd7;" 
 />
    <glyph glyph-name="uni00B9" unicode="&#xb9;" 
 />
    <glyph glyph-name="uni00B2" unicode="&#xb2;" 
 />
    <glyph glyph-name="uni00B3" unicode="&#xb3;" 
 />
    <glyph glyph-name="glyph243" unicode="&#xbd;" horiz-adv-x="844" 
d="M664 691l-542 -718h-69l543 718h68v0zM506 273l9 60q15 7 29 12.5t27 8.5q10 2 20 3t20 1q46 0 75 -23.5t29 -60.5t-33 -85.5t-122 -141.5l150 1l-7 -48h-259q104 106 156.5 173.5t52.5 92.5q0 20 -13.5 30.5t-38.5 10.5q-21 0 -43.5 -8t-51.5 -27v1zM263 691l-66 -359
h-64l65 359h65v0z" />
    <glyph glyph-name="onequarter" unicode="&#xbc;" 
 />
    <glyph glyph-name="threequarters" unicode="&#xbe;" 
 />
    <glyph glyph-name="franc" unicode="&#x20a3;" 
 />
    <glyph glyph-name="Gbreve" unicode="&#x11e;" 
 />
    <glyph glyph-name="gbreve" unicode="&#x11f;" 
 />
    <glyph glyph-name="Idotaccent" unicode="&#x130;" 
 />
    <glyph glyph-name="Scedilla" unicode="&#x15e;" 
 />
    <glyph glyph-name="scedilla" unicode="&#x15f;" 
 />
    <glyph glyph-name="Cacute" unicode="&#x106;" 
 />
    <glyph glyph-name="cacute" unicode="&#x107;" 
 />
    <glyph glyph-name="Ccaron" unicode="&#x10c;" 
 />
    <glyph glyph-name="ccaron" unicode="&#x10d;" 
 />
    <glyph glyph-name="dcroat" unicode="&#x111;" 
 />
    <glyph glyph-name="glyph257" unicode="&#x2192;" horiz-adv-x="500" 
 />
    <glyph glyph-name="glyph258" unicode="&#x2302;" 
 />
    <glyph glyph-name="glyph259" unicode="&#x2013;" horiz-adv-x="500" 
d="M509 285v-64h-518v64h518v0z" />
    <glyph glyph-name="uni00AD" unicode="&#xad;" horiz-adv-x="500" 
 />
    <glyph glyph-name="glyph261" unicode="&#x25a0;" horiz-adv-x="500" 
 />
    <glyph glyph-name="glyph262" unicode="&#x2022;" horiz-adv-x="354" 
d="M316 341q0 -52 -36.5 -88.5t-87.5 -36.5t-87.5 36.5t-36.5 87.5t36.5 87.5t87.5 36.5t87.5 -36.5t36.5 -87.5v1z" />
    <glyph glyph-name="glyph263" unicode="&#xaf;" 
 />
    <glyph glyph-name="glyph264" unicode="&#xb0;" 
 />
    <glyph glyph-name="glyph265" unicode="&#xb7;" 
 />
    <glyph glyph-name="underscoredbl" unicode="&#x2017;" 
 />
    <glyph glyph-name="exclamdbl" unicode="&#x203c;" 
 />
    <glyph glyph-name="uni207F" unicode="&#x207f;" 
 />
    <glyph glyph-name="peseta" unicode="&#x20a7;" 
 />
    <glyph glyph-name="Gamma" unicode="&#x393;" 
 />
    <glyph glyph-name="Theta" unicode="&#x398;" 
 />
    <glyph glyph-name="Phi" unicode="&#x3a6;" 
 />
    <glyph glyph-name="alpha" unicode="&#x3b1;" 
 />
    <glyph glyph-name="delta" unicode="&#x3b4;" 
 />
    <glyph glyph-name="epsilon" unicode="&#x3b5;" 
 />
    <glyph glyph-name="sigma" unicode="&#x3c3;" 
 />
    <glyph glyph-name="tau" unicode="&#x3c4;" 
 />
    <glyph glyph-name="phi" unicode="&#x3c6;" 
 />
    <glyph glyph-name="arrowleft" unicode="&#x2190;" 
 />
    <glyph glyph-name="arrowup" unicode="&#x2191;" 
 />
    <glyph glyph-name="arrowdown" unicode="&#x2193;" 
 />
    <glyph glyph-name="arrowboth" unicode="&#x2194;" 
 />
    <glyph glyph-name="arrowupdn" unicode="&#x2195;" 
 />
    <glyph glyph-name="arrowupdnbse" unicode="&#x21a8;" 
 />
    <glyph glyph-name="orthogonal" unicode="&#x221f;" 
 />
    <glyph glyph-name="intersection" unicode="&#x2229;" 
 />
    <glyph glyph-name="equivalence" unicode="&#x2261;" 
 />
    <glyph glyph-name="revlogicalnot" unicode="&#x2310;" 
 />
    <glyph glyph-name="integraltp" unicode="&#x2320;" 
 />
    <glyph glyph-name="integralbt" unicode="&#x2321;" 
 />
    <glyph glyph-name="filledrect" unicode="&#x25ac;" 
 />
    <glyph glyph-name="circle" unicode="&#x25cb;" 
 />
    <glyph glyph-name="triagup" unicode="&#x25b2;" 
 />
    <glyph glyph-name="triagrt" unicode="&#x25ba;" 
 />
    <glyph glyph-name="triagdn" unicode="&#x25bc;" 
 />
    <glyph glyph-name="triaglf" unicode="&#x25c4;" 
 />
    <glyph glyph-name="invbullet" unicode="&#x25d8;" 
 />
    <glyph glyph-name="invcircle" unicode="&#x25d9;" 
 />
    <glyph glyph-name="Rcaron" unicode="&#x158;" 
 />
    <glyph glyph-name="upblock" unicode="&#x2580;" 
 />
    <glyph glyph-name="dnblock" unicode="&#x2584;" 
 />
    <glyph glyph-name="block" unicode="&#x2588;" 
 />
    <glyph glyph-name="lfblock" unicode="&#x258c;" 
 />
    <glyph glyph-name="rtblock" unicode="&#x2590;" 
 />
    <glyph glyph-name="ltshade" unicode="&#x2591;" 
 />
    <glyph glyph-name="shade" unicode="&#x2592;" 
 />
    <glyph glyph-name="dkshade" unicode="&#x2593;" 
 />
    <glyph glyph-name="smileface" unicode="&#x263a;" 
 />
    <glyph glyph-name="invsmileface" unicode="&#x263b;" 
 />
    <glyph glyph-name="sun" unicode="&#x263c;" 
 />
    <glyph glyph-name="female" unicode="&#x2640;" 
 />
    <glyph glyph-name="male" unicode="&#x2642;" 
 />
    <glyph glyph-name="spade" unicode="&#x2660;" 
 />
    <glyph glyph-name="club" unicode="&#x2663;" 
 />
    <glyph glyph-name="heart" unicode="&#x2665;" 
 />
    <glyph glyph-name="diamond" unicode="&#x2666;" 
 />
    <glyph glyph-name="musicalnote" unicode="&#x266a;" 
 />
    <glyph glyph-name="musicalnotedbl" unicode="&#x266b;" 
 />
    <glyph glyph-name="Abreve" unicode="&#x102;" 
 />
    <glyph glyph-name="abreve" unicode="&#x103;" 
 />
    <glyph glyph-name="Aogonek" unicode="&#x104;" 
 />
    <glyph glyph-name="aogonek" unicode="&#x105;" 
 />
    <glyph glyph-name="Dcaron" unicode="&#x10e;" 
 />
    <glyph glyph-name="dcaron" unicode="&#x10f;" 
 />
    <glyph glyph-name="Dcroat" unicode="&#x110;" 
 />
    <glyph glyph-name="Eogonek" unicode="&#x118;" 
 />
    <glyph glyph-name="eogonek" unicode="&#x119;" 
 />
    <glyph glyph-name="Ecaron" unicode="&#x11a;" 
 />
    <glyph glyph-name="ecaron" unicode="&#x11b;" 
 />
    <glyph glyph-name="Lacute" unicode="&#x139;" 
 />
    <glyph glyph-name="lacute" unicode="&#x13a;" 
 />
    <glyph glyph-name="Lcaron" unicode="&#x13d;" 
 />
    <glyph glyph-name="lcaron" unicode="&#x13e;" 
 />
    <glyph glyph-name="Nacute" unicode="&#x143;" 
 />
    <glyph glyph-name="nacute" unicode="&#x144;" 
 />
    <glyph glyph-name="Ncaron" unicode="&#x147;" 
 />
    <glyph glyph-name="ncaron" unicode="&#x148;" 
 />
    <glyph glyph-name="Ohungarumlaut" unicode="&#x150;" 
 />
    <glyph glyph-name="ohungarumlaut" unicode="&#x151;" 
 />
    <glyph glyph-name="Racute" unicode="&#x154;" 
 />
    <glyph glyph-name="racute" unicode="&#x155;" 
 />
    <glyph glyph-name="rcaron" unicode="&#x159;" 
 />
    <glyph glyph-name="Sacute" unicode="&#x15a;" 
 />
    <glyph glyph-name="sacute" unicode="&#x15b;" 
 />
    <glyph glyph-name="Tcommaaccent" unicode="&#x162;" 
 />
    <glyph glyph-name="tcommaaccent" unicode="&#x163;" 
 />
    <glyph glyph-name="Tcaron" unicode="&#x164;" 
 />
    <glyph glyph-name="tcaron" unicode="&#x165;" 
 />
    <glyph glyph-name="Uring" unicode="&#x16e;" 
 />
    <glyph glyph-name="uring" unicode="&#x16f;" 
 />
    <glyph glyph-name="uhungarumlaut" unicode="&#x171;" 
 />
    <glyph glyph-name="Uhungarumlaut" unicode="&#x170;" 
 />
    <glyph glyph-name="Zacute" unicode="&#x179;" 
 />
    <glyph glyph-name="zacute" unicode="&#x17a;" 
 />
    <glyph glyph-name="Zdotaccent" unicode="&#x17b;" 
 />
    <glyph glyph-name="zdotaccent" unicode="&#x17c;" 
 />
    <glyph glyph-name="Ldot" unicode="&#x13f;" 
 />
    <glyph glyph-name="ldot" unicode="&#x140;" 
 />
    <glyph glyph-name="SF100000" unicode="&#x2500;" 
 />
    <glyph glyph-name="SF110000" unicode="&#x2502;" 
 />
    <glyph glyph-name="SF010000" unicode="&#x250c;" 
 />
    <glyph glyph-name="SF030000" unicode="&#x2510;" 
 />
    <glyph glyph-name="SF020000" unicode="&#x2514;" 
 />
    <glyph glyph-name="SF040000" unicode="&#x2518;" 
 />
    <glyph glyph-name="SF080000" unicode="&#x251c;" 
 />
    <glyph glyph-name="SF090000" unicode="&#x2524;" 
 />
    <glyph glyph-name="SF060000" unicode="&#x252c;" 
 />
    <glyph glyph-name="SF070000" unicode="&#x2534;" 
 />
    <glyph glyph-name="SF050000" unicode="&#x253c;" 
 />
    <glyph glyph-name="SF430000" unicode="&#x2550;" 
 />
    <glyph glyph-name="SF240000" unicode="&#x2551;" 
 />
    <glyph glyph-name="SF510000" unicode="&#x2552;" 
 />
    <glyph glyph-name="SF520000" unicode="&#x2553;" 
 />
    <glyph glyph-name="SF390000" unicode="&#x2554;" 
 />
    <glyph glyph-name="SF220000" unicode="&#x2555;" 
 />
    <glyph glyph-name="SF210000" unicode="&#x2556;" 
 />
    <glyph glyph-name="SF250000" unicode="&#x2557;" 
 />
    <glyph glyph-name="SF500000" unicode="&#x2558;" 
 />
    <glyph glyph-name="SF490000" unicode="&#x2559;" 
 />
    <glyph glyph-name="SF380000" unicode="&#x255a;" 
 />
    <glyph glyph-name="SF280000" unicode="&#x255b;" 
 />
    <glyph glyph-name="SF270000" unicode="&#x255c;" 
 />
    <glyph glyph-name="SF260000" unicode="&#x255d;" 
 />
    <glyph glyph-name="SF360000" unicode="&#x255e;" 
 />
    <glyph glyph-name="SF370000" unicode="&#x255f;" 
 />
    <glyph glyph-name="SF420000" unicode="&#x2560;" 
 />
    <glyph glyph-name="SF190000" unicode="&#x2561;" 
 />
    <glyph glyph-name="SF200000" unicode="&#x2562;" 
 />
    <glyph glyph-name="SF230000" unicode="&#x2563;" 
 />
    <glyph glyph-name="SF470000" unicode="&#x2564;" 
 />
    <glyph glyph-name="SF480000" unicode="&#x2565;" 
 />
    <glyph glyph-name="SF410000" unicode="&#x2566;" 
 />
    <glyph glyph-name="SF450000" unicode="&#x2567;" 
 />
    <glyph glyph-name="SF460000" unicode="&#x2568;" 
 />
    <glyph glyph-name="SF400000" unicode="&#x2569;" 
 />
    <glyph glyph-name="SF540000" unicode="&#x256a;" 
 />
    <glyph glyph-name="SF530000" unicode="&#x256b;" 
 />
    <glyph glyph-name="SF440000" unicode="&#x256c;" 
 />
    </font>
</defs>
</svg>
